<svg xmlns="http://www.w3.org/2000/svg" viewBox="0 0 80.68 98.39"><title>aside-logo</title><polygon points="63.67 0 28.73 0 11.73 4.88 11.73 8.51 80.68 8.51 80.68 4.74 63.67 0" style="fill:#434345"/><path d="M1031.74,1064.91h7.55a4.25,4.25,0,0,1,3.12,1.05,4.19,4.19,0,0,1,1.06,3.1v50.84a15,15,0,0,1,10.43,25.78l7.59,0h15.6l23.59-69.61q2-6,4.5-8.58t5-2.6h2.22v-5.11h-80.68v5.11Zm21.54,0h41.61l-24.83,73.91h-5.49a19.38,19.38,0,0,0,.41-3.87,19.73,19.73,0,0,0-11.68-18v-52Z" transform="translate(-1031.74 -1047.31)" style="fill:#434345"/><circle cx="11.69" cy="87.62" r="10.77" style="fill:#808285"/><path d="M1063.06,1105a4.7,4.7,0,0,1,1.34-3.53,5,5,0,0,1,3.66-1.31,3.72,3.72,0,0,1,2.65.93,3.41,3.41,0,0,1,1,2.61,4.61,4.61,0,0,1-1.34,3.44,4.77,4.77,0,0,1-3.49,1.32,4,4,0,0,1-2.81-.93A3.29,3.29,0,0,1,1063.06,1105Zm2.29-9a16.64,16.64,0,0,1,2.08-5.82,14.48,14.48,0,0,1,4.27-4.19,19.06,19.06,0,0,0,3.85-3.1,3.72,3.72,0,0,0,.82-2.34q0-2.9-3.25-2.91a9.57,9.57,0,0,0-2.6.39,39.55,39.55,0,0,0-4.92,2.05l-2.25-5.4a22.72,22.72,0,0,1,10.86-3.05,10.22,10.22,0,0,1,6.84,2.14,7.41,7.41,0,0,1,2.51,6,9.19,9.19,0,0,1-.7,3.65,10.11,10.11,0,0,1-2,3,29.8,29.8,0,0,1-4.64,3.6,13.14,13.14,0,0,0-3.17,2.72,9.17,9.17,0,0,0-1.39,3.28h-6.3Z" transform="translate(-1031.74 -1047.31)" style="fill:#434345"/></svg>