<svg id="Logo_1" data-name="Logo 1" xmlns="http://www.w3.org/2000/svg" xmlns:xlink="http://www.w3.org/1999/xlink" viewBox="0 0 375.58 240.18"><defs><style>.cls-1{fill:#fff579;}.cls-2{fill:url(#radial-gradient);}.cls-3{fill:#e6e7e8;}.cls-4{fill:#91a551;}.cls-5{fill:#7ed0e0;}.cls-6{fill:#231f20;}</style><radialGradient id="radial-gradient" cx="191.6" cy="120.09" r="120.09" gradientUnits="userSpaceOnUse"><stop offset="0" stop-color="#fff"/><stop offset="0.5" stop-color="#fff" stop-opacity="0.51"/><stop offset="1" stop-color="#fff" stop-opacity="0"/></radialGradient></defs><title>EnvironmentLeth_logo</title><path class="cls-1" d="M141.72,99.76c-8.64,1.3-20.86,0-37.48-3,14.64,10.39,24.4,18.6,29.25,26,0,0,.73,5.07,40.66,0S241,112.3,258.46,113c7,0.29,12.06-9.61,20.51-15.28-17.12,3.18-29.5,4.42-38.08,2.83,1.87-8.53,7.82-19.45,17.39-34-14.08,9.26-24.78,15.13-33.18,17.19h0c-1.3-8.64,0-20.87,3-37.49-9.83,13.84-17.7,23.32-24.82,28.42h0c-4.58-7.46-8.16-19.25-11.86-35.82-3.67,16.48-7.24,28.25-11.79,35.71h0c-6.95-5.16-14.52-14.71-23.9-28.71,3.18,17.12,4.42,29.5,2.83,38.08h0c-8.52-1.87-19.45-7.82-34-17.38,9.16,13.93,15,24.55,17.12,32.91"/><circle class="cls-2" cx="191.6" cy="120.09" r="120.09"/><path class="cls-3" d="M366.51,177.17c-13.25-2-25.55-2-38.87-3.76-13.06-1.74-24-3.75-36.19-5.45l-2.11-.29-1.93-.22-4.3-.44q-4.29-.41-8.53-0.67c-5.66-.35-11.29-0.52-17-0.5a238.93,238.93,0,0,0-35.35,2.79c-1.24.19-5.19,0.67-11.18,1.56-3,.44-6.51,1-10.45,1.64l-6.23,1.07-3.12.56-3.77.73A348.89,348.89,0,0,1,152,178.87c-12.75,1.05-26.07,1.52-39.12,1.63S87,180.4,75.22,180.2l-8.67-.2-8.17-.1c-5.45-.06-10.85-0.14-16-0.37a175.57,175.57,0,0,1-26.88-2.94c-7.13-1.4-11.8-3-12.17-2.5-0.18.16,2.42,1.46,6.27,2.79a95.84,95.84,0,0,0,13.75,3.55c9.76,1.81,18.7,2.23,19.56,2.37,4.19,0.57,9.9,1.07,16.32,1.48l10,0.64,2.7,0.19,3.18,0.17,6,0.31c16.43,0.8,36.13,1.39,56.12.61,10-.39,20-1.13,29.65-2.26,4.81-.56,9.51-1.22,14-2q3.4-.55,6.67-1.16l5.94-1.16,9.77-1.77,8.47-1.44,11.48-1.88a289.61,289.61,0,0,1,51.19-4.73q6.16,0,12.28.37c1.13,0.07,1.76.08,2.78,0.17l3.12,0.28,6.71,0.68c9,1,18.43,2.1,28.38,3.24,13.15,1.53,25.44,1.25,38.72,3.16a0.51,0.51,0,0,0,.59-0.22C367,177.37,366.84,177.19,366.51,177.17Z"/><path class="cls-3" d="M367.85,163.28c-12.82-1.94-24.89-1.9-38.13-3.67-13-1.73-24-3.76-36.51-5.49l-2.28-.31-2.19-.25-4.57-.46q-4.55-.43-9-0.7c-6-.36-11.93-0.53-17.89-0.5a251.7,251.7,0,0,0-36.85,2.92c-2.58.4-16.29,2-35.59,5.71A335.3,335.3,0,0,1,150.66,165c-12.31,1-25.27,1.47-38.06,1.57s-25.43-.1-37.17-0.31l-8.64-.2-8.21-.1c-5.4-.06-10.59-0.14-15.47-0.35A165,165,0,0,1,18.76,163c-6.15-1.17-9.94-2.38-10.29-1.91-0.16.17,1.94,1.26,5.19,2.41a81,81,0,0,0,11.95,3.13,181.22,181.22,0,0,0,18,2.21c4,0.56,9.44,1.05,15.81,1.46L69.51,171l2.74,0.19,3,0.17,6,0.31c16.32,0.8,35.69,1.39,55.11.63,9.7-.37,19.4-1.09,28.65-2.17,4.62-.54,9.13-1.17,13.47-1.87q3.25-.53,6.37-1.1l5.84-1.14,10.09-1.83,8.7-1.48,11.85-1.93a302.2,302.2,0,0,1,53.61-4.85q6.52,0,13,.42c4,0.21,8.69.75,13.25,1.21,9.19,1,18.64,2.13,28.53,3.27,13.07,1.52,25.12,1.2,38,3.07a0.49,0.49,0,0,0,.57-0.22C368.35,163.47,368.17,163.29,367.85,163.28Z"/><path class="cls-3" d="M369.18,149.38c-12.4-1.9-24.22-1.82-37.38-3.57-12.92-1.72-24.07-3.77-36.84-5.54a281.74,281.74,0,0,0-38.12-2.33,265.12,265.12,0,0,0-38.34,3c-2.64.41-16.89,2.07-36.46,5.85a322.09,322.09,0,0,1-32.69,4.25c-11.87,1-24.46,1.41-37,1.51s-25-.1-36.71-0.31l-8.61-.2-8.25-.1c-5.34-.06-10.34-0.14-14.93-0.33A156,156,0,0,1,22,149.45c-5.17-.94-8.08-1.79-8.42-1.31-0.14.18,1.46,1.06,4.1,2a66,66,0,0,0,10.14,2.71,165.12,165.12,0,0,0,16.45,2c3.75,0.55,9,1,15.3,1.45L69.84,157c3.64,0.28,7.54.46,11.58,0.67,16.2,0.8,35.26,1.38,54.1.65,9.42-.36,18.77-1,27.65-2.07s17.32-2.42,24.72-4c14.73-2.78,26.31-4.49,31.55-5.39a314.77,314.77,0,0,1,56-5q6.89,0,13.79.46c4.58,0.27,9.22.81,13.89,1.28,9.35,1,18.85,2.16,28.68,3.29,13,1.51,24.8,1.15,37.24,3a0.47,0.47,0,0,0,.55-0.23C369.66,149.58,369.49,149.4,369.18,149.38Z"/><path class="cls-3" d="M370.51,135.49c-12-1.86-23.56-1.74-36.63-3.48-12.86-1.71-24.1-3.78-37.17-5.58l-2.63-.35-2.71-.31-5.11-.51q-5.08-.47-10.06-0.76c-6.65-.39-13.2-0.56-19.74-0.51a278,278,0,0,0-39.84,3.16c-2.7.42-17.48,2.16-37.32,6a308.82,308.82,0,0,1-31.26,4c-11.43.93-23.65,1.36-35.93,1.45s-24.61-.1-36.25-0.31l-8.58-.19L59,138c-5.28-.06-10.09-0.14-14.39-0.31a149.51,149.51,0,0,1-19.31-1.84c-4.19-.71-6.22-1.2-6.54-0.72-0.11.18,1,.87,3,1.65a51,51,0,0,0,8.34,2.29A149.68,149.68,0,0,0,45,141c3.52,0.54,8.52,1,14.79,1.43l10.36,0.65L73,143.25l2.72,0.16,5.9,0.31c16.09,0.8,34.82,1.37,53.09.68,9.13-.34,18.15-1,26.65-2,4.25-.49,8.38-1.06,12.33-1.69q3-.48,5.79-1l5.64-1.1,5.56-1,5.16-.92,9.16-1.55,12.58-2A327.58,327.58,0,0,1,276,128q7.25,0.06,14.55.51c1.17,0.08,2.56.16,3.77,0.28l3.64,0.35,7.12,0.73c9.5,1,19.06,2.19,28.84,3.31,12.9,1.5,24.47,1.1,36.49,2.88a0.45,0.45,0,0,0,.53-0.23C371,135.68,370.81,135.5,370.51,135.49Z"/><path class="cls-3" d="M371.84,121.6c-11.56-1.82-22.89-1.66-35.89-3.39-12.79-1.7-24.13-3.78-37.5-5.63l-2.8-.37-3-.33-5.38-.53q-5.35-.48-10.58-0.79c-7-.4-13.84-0.57-20.67-0.51a291.63,291.63,0,0,0-41.33,3.28c-1.41.21-5.9,0.77-12.58,1.77-3.34.5-7.23,1.11-11.55,1.83l-6.79,1.18-3.88.72-3.38.65a295.43,295.43,0,0,1-29.82,3.83c-11,.89-22.84,1.3-34.87,1.39s-24.21-.11-35.79-0.31l-8.54-.19-8.33-.11c-5.22-.06-9.83-0.13-13.85-0.29a149.21,149.21,0,0,1-16.79-1.47c-3.21-.48-4.37-0.62-4.67-0.13-0.09.19,0.51,0.67,1.94,1.28a35.78,35.78,0,0,0,6.53,1.87A132.34,132.34,0,0,0,45.72,127c3.3,0.52,8.06,1,14.28,1.41l10.5,0.65,5.42,0.35,5.87,0.31c16,0.8,34.39,1.36,52.08.7,8.85-.32,17.52-0.95,25.66-1.88,4.07-.46,8-1,11.76-1.61q2.82-.45,5.5-0.94l2.64-.5,2.89-.58,5.76-1.07,5.27-.94,9.39-1.59,12.95-2.1a340.4,340.4,0,0,1,60.85-5.2q7.61,0.08,15.3.56c1.18,0.08,2.82.19,4.11,0.31l3.81,0.37L307,116c9.66,1,19.27,2.23,29,3.33,12.82,1.49,24.15,1,35.75,2.79a0.43,0.43,0,0,0,.52-0.23A0.35,0.35,0,0,0,371.84,121.6Z"/><path class="cls-4" d="M116,80.9l0.2-.33c0.84,14.57,9.31,21.06,14.25,26.94,5.44,6.47,13.32,20.72,13.87,30.44s-3.07,33.42-18.61,38.13c-11,3.34-7.32,29.37-5.77,31.53,0.71,1,0,1.26-1.5,1l-1.81,0c-1.49.19-2.29-.17-1.52-1.1,1.93-2.33,4.41-27.63-6.53-31.68-15.92-5.89-19.86-29-19.53-38.66s7.86-23.74,13.15-30.06c4.8-5.74,13.12-12,13.6-26.55L116,80.9"/><path class="cls-5" d="M62.82,80.92c-0.19,38.93,2.56,50.69,11.84,64.09C108,193.16,74,208.83,62.51,208.67,51.77,208.83,17,193.16,50.37,145c9.28-13.39,12-25.16,11.84-64.09"/><path class="cls-6" d="M160,143.39v-0.56h0.56a0.91,0.91,0,0,0,1-1.09V122.37a0.91,0.91,0,0,0-1-1.09H160v-0.56h15.44q0.07,2.31.3,5.08h-0.5q-0.89-3.5-3.83-3.5h-5.25q-1.95,0-1.95,1.15v7.46h4.69a3.16,3.16,0,0,0,1.88-.41,2.35,2.35,0,0,0,.69-1.57h0.46v5.58h-0.46a2.35,2.35,0,0,0-.69-1.57,3.17,3.17,0,0,0-1.88-.41h-4.69v8.22a1,1,0,0,0,1.25,1.06h5.68a4.87,4.87,0,0,0,3.27-.92,5,5,0,0,0,1.39-2.77h0.53q-0.13,1.39-.3,5.28H160Z"/><path class="cls-6" d="M192.63,141.93a0.64,0.64,0,0,0,.73.73h0.43l0,0.56q-2.41.13-3.7,0.33V132.4q0-3.89-3.43-3.89a4,4,0,0,0-3.13,1.5,5.36,5.36,0,0,0-1.29,3.61v8.32a0.67,0.67,0,0,0,.79.73h0.5v0.56q-0.82,0-2.47.16t-2.48.17V143H179a0.63,0.63,0,0,0,.73-0.69V128.73a0.54,0.54,0,0,0-.56-0.66,0.85,0.85,0,0,1-.59-0.59l0.89-.1q0.59-.07.86-0.07,0.86-.07,1.78-0.2v2.94a6,6,0,0,1,5.12-3.07,5.06,5.06,0,0,1,4,1.57,6.44,6.44,0,0,1,1.4,4.44v8.94Z"/><path class="cls-6" d="M209.63,128.93l-6.57,14.66h-0.79l-6.73-15a1,1,0,0,0-.41-0.53,2.42,2.42,0,0,0-.78-0.13v-0.56q2.44-.07,4.85-0.2v0.56a1.46,1.46,0,0,0-1,.2,0.73,0.73,0,0,0-.12.26,1,1,0,0,0,.1.49l5,10.93,4.78-10.6a1.75,1.75,0,0,0,.2-0.69A1,1,0,0,0,208,128a1.28,1.28,0,0,0-1.09-.3v-0.56q2.08,0.13,4.16.2v0.56A1.48,1.48,0,0,0,209.63,128.93Z"/><path class="cls-6" d="M215.9,141.93a0.67,0.67,0,0,0,.79.73h0.46l0,0.56q-0.82,0-2.51.16t-2.54.17V143h0.46a0.66,0.66,0,0,0,.79-0.69V128.87a0.57,0.57,0,0,0-.63-0.66,0.8,0.8,0,0,1-.63-0.59q1.25-.13,3.76-0.5v14.82Zm-3.2-20a2.09,2.09,0,0,1,.68-1.06,1.06,1.06,0,0,1,2,0,1.16,1.16,0,0,1,0,2.11,1.06,1.06,0,0,1-2,0A2.09,2.09,0,0,1,212.69,122Z"/><path class="cls-6" d="M223.62,141.93a0.63,0.63,0,0,0,.56.69,6.92,6.92,0,0,0,1,0v0.56q-0.89,0-2.67.16t-2.67.17V143a5.76,5.76,0,0,0,.86,0,0.61,0.61,0,0,0,.4-0.66V128.73a0.56,0.56,0,0,0-.59-0.66,0.92,0.92,0,0,1-.59-0.59q2.18-.13,3.6-0.36v4.26q1.32-4.39,5.08-4.39,1.58,0,1.58,1.15a1.26,1.26,0,0,1-.54,1,1.7,1.7,0,0,1-1.07.45q-0.5,0-.5-0.36a0.78,0.78,0,0,1,.4-0.66l-0.23,0H228q-2.28,0-3.46,3.23a14.73,14.73,0,0,0-.89,5.15v5Z"/><path class="cls-6" d="M247.25,135.4a8.18,8.18,0,0,1-2.41,6,8.26,8.26,0,0,1-11.73,0,8.65,8.65,0,0,1,0-11.95,8.29,8.29,0,0,1,11.75,0A8.21,8.21,0,0,1,247.25,135.4Zm-2.74,0a7.86,7.86,0,0,0-1.48-5,5.33,5.33,0,0,0-8.1,0,9.36,9.36,0,0,0,0,10.06,5.33,5.33,0,0,0,8.1,0A7.86,7.86,0,0,0,244.51,135.4Z"/><path class="cls-6" d="M263.25,141.93a0.64,0.64,0,0,0,.73.73h0.43l0,0.56q-2.41.13-3.7,0.33V132.4q0-3.89-3.43-3.89a4,4,0,0,0-3.13,1.5,5.36,5.36,0,0,0-1.29,3.61v8.32a0.67,0.67,0,0,0,.79.73h0.5v0.56q-0.82,0-2.47.16t-2.48.17V143h0.43a0.63,0.63,0,0,0,.73-0.69V128.73a0.54,0.54,0,0,0-.56-0.66,0.85,0.85,0,0,1-.59-0.59l0.89-.1q0.59-.07.86-0.07,0.86-.07,1.78-0.2v2.94a6,6,0,0,1,5.12-3.07,5.06,5.06,0,0,1,4,1.57,6.44,6.44,0,0,1,1.4,4.44v8.94Z"/><path class="cls-6" d="M289.59,141.93a0.66,0.66,0,0,0,.76.73h0.46v0.56q-2.15.13-3.73,0.33V132.3q0-3.79-3.15-3.79a3.39,3.39,0,0,0-2.8,1.32,5.37,5.37,0,0,0-1,3.43v8.68a0.65,0.65,0,0,0,.75.73h0.44v0.56q-2.08.1-3.7,0.33V132.3q0-3.79-3.17-3.79a3.37,3.37,0,0,0-2.82,1.35,5.86,5.86,0,0,0-1,3.66v8.42a0.67,0.67,0,0,0,.79.73h0.49l0,0.56q-0.82,0-2.51.16t-2.54.17V143h0.46a0.64,0.64,0,0,0,.76-0.69V128.73a0.54,0.54,0,0,0-.56-0.66,0.84,0.84,0,0,1-.59-0.59l1.78-.17q0.92-.07,1.75-0.2V130a5.07,5.07,0,0,1,4.65-3,4.39,4.39,0,0,1,4.62,3.13,5.13,5.13,0,0,1,4.88-3.13q5,0,5,5.71v9.24Z"/><path class="cls-6" d="M307.47,140.88a7.82,7.82,0,0,1-6.47,2.94,7.42,7.42,0,0,1-5.63-2.44,9,9,0,0,1,0-12A7.44,7.44,0,0,1,301,127a6.71,6.71,0,0,1,6.8,5.94L295.92,137a7.6,7.6,0,0,0,1.42,3.33,5,5,0,0,0,4.13,2,7.32,7.32,0,0,0,5.61-2.84,4,4,0,0,1,.2.71A4,4,0,0,0,307.47,140.88Zm-11.68-5.31,8.81-3.4Q304,128.5,301,128.5a4.56,4.56,0,0,0-3.83,1.75,7.75,7.75,0,0,0-1.35,4.85v0.46Z"/><path class="cls-6" d="M323.77,141.93a0.64,0.64,0,0,0,.73.73h0.43l0,0.56q-2.41.13-3.7,0.33V132.4q0-3.89-3.43-3.89a4,4,0,0,0-3.13,1.5,5.36,5.36,0,0,0-1.29,3.61v8.32a0.67,0.67,0,0,0,.79.73h0.5v0.56q-0.82,0-2.47.16t-2.48.17V143h0.43a0.63,0.63,0,0,0,.73-0.69V128.73a0.54,0.54,0,0,0-.56-0.66,0.85,0.85,0,0,1-.59-0.59l0.89-.1q0.59-.07.86-0.07,0.86-.07,1.78-0.2v2.94a6,6,0,0,1,5.12-3.07,5.06,5.06,0,0,1,4,1.57,6.44,6.44,0,0,1,1.4,4.44v8.94Z"/><path class="cls-6" d="M331,139.66a2.89,2.89,0,0,0,.56,2,2.66,2.66,0,0,0,1.95.58q1.09,0,1.88-2.21l0.46,0.89a6.5,6.5,0,0,1-.69,1.29,3.2,3.2,0,0,1-2.24,1.48q-0.36,0-.69,0a3.34,3.34,0,0,1-2.76-1.2,5,5,0,0,1-1-3.22V128.87h-2.28l0.23-1.52a2.8,2.8,0,0,0,2.44-1.06,4.06,4.06,0,0,0,1-2,19.46,19.46,0,0,1,.59-2H331v5.11h4.55v1.52H331v10.79Z"/><path class="cls-6" d="M165,150.23v22a1.22,1.22,0,0,0,1.48,1.25h4.8q3.59,0,4.56-4.37h0.62q-0.23,2.18-.51,6.24H160v-0.66h0.7a1,1,0,0,0,1.05-1.29v-23a1,1,0,0,0-1-1.29H160v-0.66h6.79v0.43h-0.74A1.07,1.07,0,0,0,165,150.23Z"/><path class="cls-6" d="M194.79,172.42a9.24,9.24,0,0,1-7.64,3.47,8.76,8.76,0,0,1-6.65-2.89,10.65,10.65,0,0,1,0-14.16,8.79,8.79,0,0,1,6.69-2.85,7.93,7.93,0,0,1,8,7l-14,4.8a9,9,0,0,0,1.68,3.94,6,6,0,0,0,4.88,2.34,8.65,8.65,0,0,0,6.63-3.35,4.71,4.71,0,0,1,.23.84A4.7,4.7,0,0,0,194.79,172.42ZM181,166.14l10.41-4q-0.7-4.33-4.29-4.33a5.39,5.39,0,0,0-4.52,2.07,9.16,9.16,0,0,0-1.6,5.73v0.55Z"/><path class="cls-6" d="M202,171a3.41,3.41,0,0,0,.66,2.4,3.14,3.14,0,0,0,2.3.68q1.29,0,2.22-2.61l0.55,1.05A7.62,7.62,0,0,1,207,174a3.78,3.78,0,0,1-2.65,1.76c-0.29,0-.56,0-0.82,0a4,4,0,0,1-3.26-1.42,5.87,5.87,0,0,1-1.15-3.8V158.23h-2.69l0.27-1.79a3.31,3.31,0,0,0,2.89-1.25,4.8,4.8,0,0,0,1.17-2.38,23,23,0,0,1,.7-2.42H202v6h5.38v1.79H202V171Z"/><path class="cls-6" d="M226,173.67a0.76,0.76,0,0,0,.86.86h0.51v0.66q-2.81.16-4.33,0.39V162.4q0-4.6-4.06-4.6a4.71,4.71,0,0,0-3.71,1.77,6.34,6.34,0,0,0-1.52,4.27v9.83a0.79,0.79,0,0,0,.94.86h0.58l0,0.66-2.18.19q-1.4.12-2.22,0.12l-1.4.08v-0.66H210a0.76,0.76,0,0,0,.86-0.86V149.8a0.64,0.64,0,0,0-.66-0.78,0.93,0.93,0,0,1-.7-0.66l4.33-.51v11.78a6.36,6.36,0,0,1,5.89-3.63,6,6,0,0,1,4.7,1.85A7.6,7.6,0,0,1,226,163.1v10.57Z"/><path class="cls-6" d="M234.18,159.86a7.74,7.74,0,0,1,6.75-3.86,8.61,8.61,0,0,1,6.61,2.75,10.76,10.76,0,0,1-.27,14.23,9.14,9.14,0,0,1-6.84,2.94,8.79,8.79,0,0,1-5.46-2,7.49,7.49,0,0,1-3.16-4.84,38.24,38.24,0,0,1-.58-5.27v-14a0.64,0.64,0,0,0-.66-0.78,0.93,0.93,0,0,1-.7-0.66q1.44-.12,4.33-0.51v12Zm0,6.32v0.74a7.7,7.7,0,0,0,1.7,5.32,5.94,5.94,0,0,0,4.66,1.89,5.61,5.61,0,0,0,4.66-2.22,9.24,9.24,0,0,0,1.74-5.85,9.67,9.67,0,0,0-1.74-5.95,5.38,5.38,0,0,0-4.5-2.32,5.68,5.68,0,0,0-4.66,2.38A9.48,9.48,0,0,0,234.22,166.18Z"/><path class="cls-6" d="M257.23,173.67a0.74,0.74,0,0,0,.66.82,8.06,8.06,0,0,0,1.21,0v0.66q-1.05,0-3.16.19t-3.16.19v-0.66a6.9,6.9,0,0,0,1,0,0.72,0.72,0,0,0,.47-0.78v-16a0.66,0.66,0,0,0-.7-0.78,1.09,1.09,0,0,1-.7-0.7q2.57-.16,4.25-0.43v5q1.56-5.19,6-5.19,1.87,0,1.87,1.36a1.49,1.49,0,0,1-.64,1.15,2,2,0,0,1-1.27.53q-0.58,0-.58-0.43a0.92,0.92,0,0,1,.47-0.78l-0.27,0h-0.31q-2.69,0-4.09,3.82a17.4,17.4,0,0,0-1.05,6.08v6Z"/><path class="cls-6" d="M270.88,173.67a0.79,0.79,0,0,0,.94.86h0.55l0,0.66q-1,0-3,.19t-3,.19v-0.66H267a0.78,0.78,0,0,0,.94-0.82V158.23a0.67,0.67,0,0,0-.74-0.78,1,1,0,0,1-.74-0.7q1.48-.16,4.45-0.58v17.51Zm-3.78-23.6a2.47,2.47,0,0,1,.8-1.25,1.25,1.25,0,0,1,2.38,0,1.37,1.37,0,0,1,0,2.5,1.25,1.25,0,0,1-2.38,0A2.46,2.46,0,0,1,267.09,150.08Z"/><path class="cls-6" d="M291.43,171.92a6.48,6.48,0,0,1-2.53,2.73,8,8,0,0,1-4.32,1.25,8.16,8.16,0,0,1-6.36-2.92,10.39,10.39,0,0,1-2.59-7.14,9.69,9.69,0,0,1,2.77-6.92,8.93,8.93,0,0,1,6.71-2.91,6.86,6.86,0,0,1,6.2,3.67V149.8a0.67,0.67,0,0,0-.74-0.78,1,1,0,0,1-.78-0.66q1.48-.12,4.48-0.51V174q0,0.82,1.33.82v0.55l-4.17.39v-3.86Zm0-6a9.3,9.3,0,0,0-1.75-5.93A5.62,5.62,0,0,0,285,157.8a5.34,5.34,0,0,0-4.48,2.3,9.52,9.52,0,0,0-1.72,5.85,9.64,9.64,0,0,0,1.68,5.89,5.23,5.23,0,0,0,4.41,2.26,5.71,5.71,0,0,0,4.7-2.3A9.16,9.16,0,0,0,291.43,165.95Z"/><path class="cls-6" d="M298.65,162.67a6,6,0,0,1,2.2-4.78,8.12,8.12,0,0,1,5.48-1.89,9.92,9.92,0,0,1,2.54.35q4-1.75,5.42-1.75a1,1,0,0,1,1.21,1.05,0.75,0.75,0,0,1-.82.82l-1,0q-2.07,0-2.34.94l0.58,0.43a5.8,5.8,0,0,1,2.34,4.72,5.57,5.57,0,0,1-2.17,4.5,8.23,8.23,0,0,1-5.4,1.77,9.06,9.06,0,0,1-3.71-.62l-0.12,0a0.8,0.8,0,0,0-.7.58q0,0.66,1.52.9,0.94,0.12,4.15.2a9.07,9.07,0,0,1,5.25,1.56,5.13,5.13,0,0,1,2.18,4.37,6,6,0,0,1-2.71,5,11.53,11.53,0,0,1-12.34.31q-2.69-1.64-2.69-3.24,0-1.87,4-2.26l1.21-.16q-3,.62-3,1.56,0,1.13,1.91,2.46a7.77,7.77,0,0,0,4.56,1.48,8.53,8.53,0,0,0,4.49-1.13,3.73,3.73,0,0,0,2.07-3.28,3.8,3.8,0,0,0-1.83-3.2,8,8,0,0,0-4.91-1.21l-1.37,0-2.34-.08q-2.1-.08-2.11-1.09a3.07,3.07,0,0,1,.86-1.72,5.57,5.57,0,0,1,1.48-1.33Q298.64,166.22,298.65,162.67Zm7.92-5a4.72,4.72,0,0,0-3.49,1.35,4.77,4.77,0,0,0-1.35,3.53,5,5,0,0,0,1.29,3.57,4.63,4.63,0,0,0,3.51,1.35,4.48,4.48,0,0,0,3.39-1.35,5.48,5.48,0,0,0,0-7.08A4.42,4.42,0,0,0,306.56,157.72Z"/><path class="cls-6" d="M334.64,172.42a9.24,9.24,0,0,1-7.64,3.47,8.76,8.76,0,0,1-6.65-2.89,10.65,10.65,0,0,1,0-14.16A8.79,8.79,0,0,1,327,156a7.93,7.93,0,0,1,8,7l-14,4.8a9,9,0,0,0,1.68,3.94,6,6,0,0,0,4.88,2.34,8.65,8.65,0,0,0,6.63-3.35,4.71,4.71,0,0,1,.23.84A4.7,4.7,0,0,0,334.64,172.42Zm-13.81-6.28,10.41-4q-0.7-4.33-4.29-4.33a5.39,5.39,0,0,0-4.52,2.07,9.16,9.16,0,0,0-1.6,5.73v0.55Z"/></svg>