<!DOCTYPE svg PUBLIC "-//W3C//DTD SVG 20010904//EN" "http://www.w3.org/TR/2001/REC-SVG-20010904/DTD/svg10.dtd">
<svg version="1.0" xmlns="http://www.w3.org/2000/svg" width="123px" height="359px" viewBox="0 0 1230 3590" preserveAspectRatio="xMidYMid meet">
<g id="layer1" fill="#aba8a8" stroke="none">
 <path d="M760 3060 c0 -13 7 -20 20 -20 17 0 20 -7 20 -40 0 -33 3 -40 20 -40 17 0 20 7 20 40 0 33 -3 40 -20 40 -13 0 -20 7 -20 20 0 13 -7 20 -20 20 -13 0 -20 -7 -20 -20z"/>
 <path d="M280 2980 c0 -17 7 -20 40 -20 33 0 40 3 40 20 0 17 -7 20 -40 20 -33 0 -40 -3 -40 -20z"/>
 <path d="M520 2980 c0 -13 -7 -20 -20 -20 -18 0 -20 -7 -20 -80 0 -73 2 -80 20 -80 18 0 20 7 20 80 l0 80 80 0 80 0 0 -320 c0 -313 0 -320 20 -320 20 0 20 7 20 320 0 313 0 320 -20 320 -13 0 -20 7 -20 20 0 18 -7 20 -80 20 -73 0 -80 -2 -80 -20z"/>
 <path d="M360 2780 c0 -13 7 -20 20 -20 13 0 20 7 20 20 0 13 -7 20 -20 20 -13 0 -20 -7 -20 -20z"/>
 <path d="M520 2740 c0 -13 7 -20 20 -20 13 0 20 -7 20 -20 0 -13 7 -20 20 -20 13 0 20 7 20 20 0 13 -7 20 -20 20 -13 0 -20 7 -20 20 0 13 -7 20 -20 20 -13 0 -20 -7 -20 -20z"/>
 <path d="M400 2700 c0 -18 -7 -20 -80 -20 -73 0 -80 -2 -80 -20 0 -18 7 -20 80 -20 73 0 80 -2 80 -20 0 -13 7 -20 20 -20 13 0 20 7 20 20 0 13 7 20 20 20 13 0 20 7 20 20 0 13 -7 20 -20 20 -13 0 -20 7 -20 20 0 13 -7 20 -20 20 -13 0 -20 -7 -20 -20z m40 -40 c0 -13 -7 -20 -20 -20 -13 0 -20 7 -20 20 0 13 7 20 20 20 13 0 20 -7 20 -20z"/>
 <path d="M600 2620 c0 -13 7 -20 20 -20 13 0 20 7 20 20 0 13 -7 20 -20 20 -13 0 -20 -7 -20 -20z"/>
 <path d="M160 2520 c0 -73 2 -80 20 -80 18 0 20 7 20 80 0 73 -2 80 -20 80 -18 0 -20 -7 -20 -80z"/>
 <path d="M320 2580 c0 -13 7 -20 20 -20 13 0 20 7 20 20 0 13 -7 20 -20 20 -13 0 -20 -7 -20 -20z"/>
 <path d="M480 2580 c0 -13 7 -20 20 -20 13 0 20 7 20 20 0 13 -7 20 -20 20 -13 0 -20 -7 -20 -20z"/>
 <path d="M240 2540 c0 -13 7 -20 20 -20 13 0 20 -7 20 -20 0 -17 7 -20 40 -20 33 0 40 3 40 20 0 17 -7 20 -40 20 -33 0 -40 3 -40 20 0 13 -7 20 -20 20 -13 0 -20 -7 -20 -20z"/>
 <path d="M400 2460 c0 -13 -7 -20 -20 -20 -13 0 -20 -7 -20 -20 0 -13 7 -20 20 -20 13 0 20 7 20 20 0 13 7 20 20 20 13 0 20 7 20 20 0 13 -7 20 -20 20 -13 0 -20 -7 -20 -20z"/>
 <path d="M600 2420 c0 -13 7 -20 20 -20 13 0 20 7 20 20 0 13 -7 20 -20 20 -13 0 -20 -7 -20 -20z"/>
 <path d="M200 2380 c0 -13 7 -20 20 -20 13 0 20 -7 20 -20 0 -13 7 -20 20 -20 13 0 20 7 20 20 0 13 -7 20 -20 20 -13 0 -20 7 -20 20 0 13 -7 20 -20 20 -13 0 -20 -7 -20 -20z"/>
 <path d="M320 2300 c0 -18 7 -20 80 -20 73 0 80 2 80 20 0 18 -7 20 -80 20 -73 0 -80 -2 -80 -20z"/>
 <path d="M240 820 c0 -213 1 -220 20 -220 19 0 20 7 20 220 0 213 -1 220 -20 220 -19 0 -20 -7 -20 -220z"/>
 <path d="M720 1020 c0 -13 7 -20 20 -20 13 0 20 7 20 20 0 13 -7 20 -20 20 -13 0 -20 -7 -20 -20z"/>
 <path d="M840 720 c0 -313 0 -320 20 -320 20 0 20 7 20 320 0 313 0 320 -20 320 -20 0 -20 -7 -20 -320z"/>
 <path d="M280 540 c0 -17 -7 -20 -40 -20 -33 0 -40 -3 -40 -20 0 -17 7 -20 40 -20 33 0 40 3 40 20 0 13 7 20 20 20 13 0 20 7 20 20 0 13 -7 20 -20 20 -13 0 -20 -7 -20 -20z"/>
 <path d="M440 540 c0 -13 7 -20 20 -20 13 0 20 -7 20 -20 0 -13 -7 -20 -20 -20 -13 0 -20 -7 -20 -20 0 -17 7 -20 40 -20 l40 0 0 40 c0 33 -3 40 -20 40 -13 0 -20 7 -20 20 0 13 -7 20 -20 20 -13 0 -20 -7 -20 -20z"/>
 <path d="M320 420 c0 -13 7 -20 20 -20 13 0 20 -7 20 -20 0 -13 7 -20 20 -20 13 0 20 7 20 20 0 13 -7 20 -20 20 -13 0 -20 7 -20 20 0 13 -7 20 -20 20 -13 0 -20 -7 -20 -20z"/>
 <path d="M680 420 c0 -13 7 -20 20 -20 13 0 20 7 20 20 0 13 -7 20 -20 20 -13 0 -20 -7 -20 -20z"/>
 <path d="M440 340 c0 -19 7 -20 100 -20 93 0 100 1 100 20 0 19 -7 20 -100 20 -93 0 -100 -1 -100 -20z"/>
 <path d="M320 300 c0 -13 7 -20 20 -20 13 0 20 7 20 20 0 13 -7 20 -20 20 -13 0 -20 -7 -20 -20z"/>
 <path d="M400 260 c0 -13 7 -20 20 -20 13 0 20 7 20 20 0 13 -7 20 -20 20 -13 0 -20 -7 -20 -20z"/>
 <path d="M640 260 c0 -17 7 -20 40 -20 33 0 40 3 40 20 0 17 -7 20 -40 20 -33 0 -40 -3 -40 -20z"/>
 </g>
<g id="layer2" fill="#201f1f" stroke="none">
 <path d="M280 3040 l0 -40 40 0 40 0 0 -100 c0 -93 1 -100 20 -100 17 0 20 -7 20 -40 0 -33 3 -40 20 -40 13 0 20 -7 20 -20 0 -13 7 -20 20 -20 17 0 20 -7 20 -40 0 -33 3 -40 20 -40 18 0 20 -7 20 -80 0 -73 -2 -80 -20 -80 -13 0 -20 -7 -20 -20 0 -18 -7 -20 -60 -20 -53 0 -60 2 -60 20 0 13 7 20 20 20 13 0 20 7 20 20 0 13 7 20 20 20 18 0 20 7 20 60 0 53 -2 60 -20 60 -13 0 -20 7 -20 20 0 19 -7 20 -100 20 l-100 0 0 -120 c0 -113 1 -120 20 -120 13 0 20 -7 20 -20 0 -13 7 -20 20 -20 13 0 20 -7 20 -20 0 -19 7 -20 140 -20 133 0 140 1 140 20 0 13 7 20 20 20 17 0 20 7 20 40 0 33 3 40 20 40 18 0 20 7 20 80 0 73 -2 80 -20 80 -17 0 -20 7 -20 40 0 33 -3 40 -20 40 -13 0 -20 7 -20 20 0 13 -7 20 -20 20 -17 0 -20 7 -20 40 0 33 -3 40 -20 40 -18 0 -20 7 -20 80 0 73 2 80 20 80 13 0 20 7 20 20 0 18 7 20 80 20 73 0 80 -2 80 -20 0 -13 7 -20 20 -20 20 0 20 -7 20 -320 l0 -320 60 0 60 0 0 320 c0 313 0 320 -20 320 -17 0 -20 7 -20 40 0 33 -3 40 -20 40 -13 0 -20 7 -20 20 0 19 -7 20 -240 20 l-240 0 0 -40z m80 -500 l0 -60 -40 0 c-33 0 -40 3 -40 20 0 13 -7 20 -20 20 -13 0 -20 7 -20 20 0 13 7 20 20 20 13 0 20 7 20 20 0 17 7 20 40 20 l40 0 0 -60z"/>
 <path d="M280 800 c0 -233 1 -240 20 -240 13 0 20 -7 20 -20 0 -13 -7 -20 -20 -20 -13 0 -20 -7 -20 -20 0 -17 -7 -20 -40 -20 l-40 0 0 -40 c0 -33 3 -40 20 -40 13 0 20 -7 20 -20 0 -13 7 -20 20 -20 13 0 20 -7 20 -20 0 -17 7 -20 40 -20 33 0 40 -3 40 -20 0 -17 7 -20 40 -20 33 0 40 -3 40 -20 0 -19 7 -20 100 -20 93 0 100 1 100 20 0 18 7 20 60 20 53 0 60 2 60 20 0 13 7 20 20 20 13 0 20 7 20 20 0 13 7 20 20 20 20 0 20 7 20 340 l0 340 -40 0 c-33 0 -40 -3 -40 -20 0 -13 -7 -20 -20 -20 -20 0 -20 -7 -20 -300 0 -293 0 -300 -20 -300 -13 0 -20 -7 -20 -20 0 -13 -7 -20 -20 -20 -13 0 -20 -7 -20 -20 0 -19 -7 -20 -100 -20 -93 0 -100 1 -100 20 0 17 -7 20 -40 20 -33 0 -40 3 -40 20 0 13 -7 20 -20 20 -13 0 -20 7 -20 20 0 18 7 20 60 20 53 0 60 2 60 20 0 13 7 20 20 20 13 0 20 7 20 20 0 13 -7 20 -20 20 -13 0 -20 7 -20 20 0 13 -7 20 -20 20 -19 0 -20 7 -20 240 l0 240 -60 0 -60 0 0 -240z"/>
 </g>
<g id="layer3" fill="#fefefe" stroke="none">
 <path d="M0 1795 l0 -1795 615 0 615 0 0 1795 0 1795 -615 0 -615 0 0 -1795z m800 1265 c0 -13 7 -20 20 -20 20 0 20 -7 20 -360 l0 -360 -80 0 -80 0 0 320 0 320 -80 0 -80 0 0 -100 c0 -93 1 -100 20 -100 13 0 20 -7 20 -20 0 -13 7 -20 20 -20 17 0 20 -7 20 -40 0 -33 3 -40 20 -40 19 0 20 -7 20 -120 0 -113 -1 -120 -20 -120 -13 0 -20 -7 -20 -20 0 -13 -7 -20 -20 -20 -13 0 -20 -7 -20 -20 0 -17 -7 -20 -40 -20 -33 0 -40 -3 -40 -20 0 -18 -7 -20 -80 -20 -73 0 -80 2 -80 20 0 17 -7 20 -40 20 -33 0 -40 3 -40 20 0 13 -7 20 -20 20 -17 0 -20 7 -20 40 0 33 -3 40 -20 40 -18 0 -20 7 -20 80 0 73 2 80 20 80 13 0 20 7 20 20 0 13 7 20 20 20 13 0 20 7 20 20 0 18 7 20 80 20 l80 0 0 40 c0 33 -3 40 -20 40 -19 0 -20 7 -20 100 l0 100 -40 0 -40 0 0 60 0 60 260 0 c253 0 260 -1 260 -20z m-400 -2260 l0 -240 40 0 c33 0 40 -3 40 -20 0 -13 7 -20 20 -20 17 0 20 -7 20 -40 l0 -40 -80 0 c-73 0 -80 -2 -80 -20 0 -13 7 -20 20 -20 13 0 20 -7 20 -20 0 -19 7 -20 140 -20 l140 0 0 40 c0 33 3 40 20 40 20 0 20 7 20 300 l0 300 80 0 80 0 0 -320 c0 -313 0 -320 -20 -320 -13 0 -20 -7 -20 -20 0 -13 -7 -20 -20 -20 -13 0 -20 -7 -20 -20 0 -13 -7 -20 -20 -20 -13 0 -20 -7 -20 -20 0 -13 -7 -20 -20 -20 -13 0 -20 -7 -20 -20 0 -19 -7 -20 -160 -20 -153 0 -160 1 -160 20 0 17 -7 20 -40 20 -33 0 -40 3 -40 20 0 13 -7 20 -20 20 -13 0 -20 7 -20 20 0 13 -7 20 -20 20 -13 0 -20 7 -20 20 0 13 -7 20 -20 20 -18 0 -20 7 -20 60 l0 60 40 0 40 0 0 40 c0 33 -3 40 -20 40 -19 0 -20 7 -20 220 l0 220 80 0 80 0 0 -240z"/>
 <path d="M400 2660 c0 -13 7 -20 20 -20 19 0 20 -7 20 -100 0 -93 -1 -100 -20 -100 -13 0 -20 -7 -20 -20 0 -17 7 -20 40 -20 33 0 40 3 40 20 0 13 7 20 20 20 18 0 20 7 20 60 0 53 -2 60 -20 60 -17 0 -20 7 -20 40 0 33 -3 40 -20 40 -13 0 -20 7 -20 20 0 13 -7 20 -20 20 -13 0 -20 -7 -20 -20z"/>
 <path d="M280 2560 l0 -40 40 0 c33 0 40 3 40 20 0 13 -7 20 -20 20 -13 0 -20 7 -20 20 0 13 -7 20 -20 20 -17 0 -20 -7 -20 -40z"/>
 </g>

</svg>