<?xml version="1.0" encoding="utf-8"?>
<!-- Generator: Adobe Illustrator 19.2.1, SVG Export Plug-In . SVG Version: 6.00 Build 0)  -->
<!DOCTYPE svg PUBLIC "-//W3C//DTD SVG 1.1//EN" "http://www.w3.org/Graphics/SVG/1.1/DTD/svg11.dtd">
<svg version="1.1" xmlns="http://www.w3.org/2000/svg" xmlns:xlink="http://www.w3.org/1999/xlink" x="0px" y="0px"
	 viewBox="0 0 2471.5 789.4" style="enable-background:new 0 0 2471.5 789.4;" xml:space="preserve">
<style type="text/css">
	.st0{fill:#CCFFE6;stroke:#78F2B6;stroke-width:3;stroke-miterlimit:10;}
	.st1{fill:none;stroke:#78F2B6;stroke-width:3;stroke-linejoin:round;stroke-miterlimit:10;}
	.st2{fill:#FFFFFF;stroke:#78F2B6;stroke-width:3;stroke-miterlimit:10;}
	.st3{fill:#D1D3D4;stroke:#BDBEBF;stroke-width:3;stroke-miterlimit:10;}
	.st4{fill:none;stroke:#78F2B6;stroke-width:3;stroke-miterlimit:10;}
	.st5{fill:#CCFFE6;}
	.st6{fill:url(#);stroke:#78F2B6;stroke-width:3;stroke-miterlimit:10;}
	.st7{fill:#78F2B6;}
	.st8{clip-path:url(#SVGID_2_);}
	.st9{fill:#FFFFFF;}
	.st10{fill:#FFFFFF;stroke:#ED6A5A;stroke-width:3;stroke-miterlimit:10;}
	.st11{fill:#ED6A5A;}
	.st12{fill:#FFFFFF;stroke:#64C998;stroke-width:3;stroke-miterlimit:10;}
	.st13{fill:url(#);stroke:#BDBEBF;stroke-width:3;stroke-miterlimit:10;}
	.st14{fill:none;stroke:#64C998;stroke-width:3;stroke-linecap:round;stroke-miterlimit:10;}
	.st15{fill:none;stroke:#53A87F;stroke-width:3;stroke-linecap:round;stroke-miterlimit:10;}
	.st16{fill:#FFFFFF;stroke:#78F2B6;stroke-width:3;stroke-linecap:round;stroke-linejoin:round;stroke-miterlimit:10;}
	.st17{fill:#64C998;}
	.st18{fill:url(#);stroke:#64C998;stroke-width:3;stroke-miterlimit:10;}
	.st19{fill:#808285;}
	.st20{fill:#0099CC;}
	.st21{clip-path:url(#SVGID_4_);fill:#FFFFFF;}
	.st22{clip-path:url(#SVGID_4_);fill:none;stroke:#78F2B6;stroke-width:3;stroke-miterlimit:10;}
	.st23{fill:#1095C8;}
	.st24{fill:#808182;}
	.st25{fill:#0DB14B;}
	.st26{fill:#434345;}
	.st27{fill:#C11823;}
	.st28{fill:#FFCF01;}
	.st29{fill:#5ED2FF;}
	.st30{fill:#BDBEBF;}
	.st31{fill:#45FF8B;}
	.st32{fill:#FF616A;}
	.st33{fill:#FFEC9C;}
	.st34{fill:#FF968A;}
	.st35{fill:#0C7299;}
	.st36{fill:#0A8035;}
	.st37{fill:#801017;}
	.st38{fill:#B08F01;}
	.st39{fill:#53A87F;}
	.st40{fill:#9C453B;}
	.st41{fill:none;stroke:#1095C8;stroke-width:3;stroke-miterlimit:10;}
	.st42{fill:none;stroke:#808182;stroke-width:3;stroke-miterlimit:10;}
	.st43{fill:none;stroke:#0DB14B;stroke-width:3;stroke-miterlimit:10;}
	.st44{fill:none;stroke:#434345;stroke-width:3;stroke-miterlimit:10;}
	.st45{fill:none;stroke:#C11823;stroke-width:3;stroke-miterlimit:10;}
	.st46{fill:none;stroke:#FFCF01;stroke-width:3;stroke-miterlimit:10;}
	.st47{fill:none;stroke:#5ED2FF;stroke-width:3;stroke-miterlimit:10;}
	.st48{fill:none;stroke:#0C7299;stroke-width:3;stroke-miterlimit:10;}
	.st49{fill:none;stroke:#BDBEBF;stroke-width:3;stroke-miterlimit:10;}
	.st50{fill:none;stroke:#ED6A5A;stroke-width:3;stroke-miterlimit:10;}
	.st51{fill:none;stroke:#CCFFE6;stroke-width:3;stroke-miterlimit:10;}
	.st52{fill:none;stroke:#FF968A;stroke-width:3;stroke-miterlimit:10;}
	.st53{fill:none;stroke:#64C998;stroke-width:3;stroke-miterlimit:10;}
	.st54{fill:none;stroke:#9C453B;stroke-width:3;stroke-miterlimit:10;}
	.st55{fill:#ADE9FF;stroke:#1095C8;stroke-width:3;stroke-miterlimit:10;}
	.st56{fill:#D1D3D4;stroke:#808182;stroke-width:3;stroke-miterlimit:10;}
	.st57{fill:#BAFFD4;stroke:#0DB14B;stroke-width:3;stroke-miterlimit:10;}
	.st58{fill:#434345;stroke:#434345;stroke-width:3;stroke-miterlimit:10;}
	.st59{fill:#C11823;stroke:#C11823;stroke-width:3;stroke-miterlimit:10;}
	.st60{fill:#FFCF01;stroke:#FFCF01;stroke-width:3;stroke-miterlimit:10;}
	.st61{fill:#BFEEFF;stroke:#1095C8;stroke-width:3;stroke-miterlimit:10;}
	.st62{fill:#BFEEFF;stroke:#5ED2FF;stroke-width:3;stroke-miterlimit:10;}
	.st63{fill:#BFEEFF;stroke:#0C7299;stroke-width:3;stroke-miterlimit:10;}
	.st64{fill:#D1D3D4;stroke:#434345;stroke-width:3;stroke-miterlimit:10;}
	.st65{fill:#FFC1BA;stroke:#ED6A5A;stroke-width:3;stroke-miterlimit:10;}
	.st66{fill:#CCFFE6;stroke:#CCFFE6;stroke-width:3;stroke-miterlimit:10;}
	.st67{fill:#FFC1BA;stroke:#FF968A;stroke-width:3;stroke-miterlimit:10;}
	.st68{fill:#CCFFE6;stroke:#64C998;stroke-width:3;stroke-miterlimit:10;}
	.st69{fill:#FFC1BA;stroke:#9C453B;stroke-width:3;stroke-miterlimit:10;}
	.st70{fill:#64C998;stroke:#78F2B6;stroke-width:3;stroke-miterlimit:10;}
	.st71{fill:#78F2B6;stroke:#64C998;stroke-width:3;stroke-miterlimit:10;}
	.st72{fill:#D1D3D4;fill-opacity:0.3;stroke:#FFFFFF;stroke-width:10;stroke-linejoin:round;stroke-miterlimit:10;}
	.st73{fill:#D1D3D4;fill-opacity:0.5;stroke:#FFFFFF;stroke-width:10;stroke-linejoin:round;stroke-miterlimit:10;}
	.st74{fill:none;stroke:#FFFFFF;stroke-width:5;stroke-linejoin:round;stroke-miterlimit:10;}
	.st75{fill:none;stroke:#FFFFFF;stroke-width:10;stroke-miterlimit:10;}
	.st76{fill:none;stroke:#FFFFFF;stroke-width:5;stroke-miterlimit:10;}
	.st77{fill:none;stroke:#FFFFFF;stroke-width:4;stroke-miterlimit:10;}
	.st78{fill:none;stroke:#FFFFFF;stroke-width:5;stroke-linecap:round;stroke-linejoin:round;stroke-miterlimit:10;}
</style>
<g id="graphics">
	<g>
		<path class="st72" d="M0,798.9h998.4c-7.9-10.9-12.7-34.5-12.7-48c0-29,22.1-52.8,50.4-55.4c-1-5.4-1.5-10.9-1.5-16.5
			c0-51,41.3-92.3,92.3-92.3c20.7,0,39.8,6.8,55.2,18.3c5.2-62.1,32.6-118,74.3-159.5l0,0c-17.5-14.9-39.6-24.4-63.9-26.1
			c-26-46.5-75.8-77.9-132.8-77.9c-43,0-81.9,17.9-109.6,46.6c-9.4-12.3-24.1-20.2-40.7-20.2c-10.4,0-20.1,3.1-28.2,8.5
			c-15.4-50.1-62.1-86.6-117.3-86.6c-18.7,0-36.3,4.2-52.2,11.6c-31-55.1-89.7-92.5-157.1-93.5c-2.7-39.8-35.9-71.2-76.4-71.2
			c-12.7,0-24.7,3.1-35.3,8.6C398.3,84.6,326.3,45.2,245.1,45.2c-49.5,0-95.6,14.7-134.2,39.9C90.6,51.4,53.7,28.9,11.5,28.9
			c-3.4,0-6.7,0.2-10,0.4"/>
		<path class="st73" d="M1949.5,753.9c0-13.4,15-34.4,45-18c15-25.4,31.5-40.4,81-45c49.5-4.6,73.5,34.6,90,54
			c22-1,62,21.8,89.6,57.3c0,0-1260-6.2-1255.3-1.5c-8.7-9.8-14.1-35.5-14.1-49.7l0,0c0-29,22.1-52.8,50.4-55.4
			c-1-5.4-1.5-10.9-1.5-16.5c0-51,41.3-92.3,92.3-92.3c20.7,0,39.8,6.8,55.2,18.3c10.9-130.9,120.6-233.8,254.3-233.8
			c82.6,0,156,39.3,202.7,100.1c16.2-6.7,33.9-10.4,52.6-10.4c71.7,0,130.7,54.5,137.8,124.3c8.8-2.6,44.5-6.3,83.9,15.6
			c32.6,18.1,86.1,48.7,126,99"/>
		<g>
			<g>
				<polyline class="st74" points="731.7,242.6 729.1,195.5 736.9,187.4 760.8,195.2 				"/>
				<polyline class="st74" points="729.2,194.2 727.9,192.4 732.2,194.4 730.8,189.9 735.6,191 734.3,186.9 738.6,188.4 				"/>
			</g>
			<path class="st9" d="M763.2,291.5c2.6,0,5.2,0.1,7.8,0.2l-9.6-67.8l-63,18.8l24.8,52.5C736.2,292.8,749.6,291.5,763.2,291.5z"/>
		</g>
		<g>
			<g>
				<polyline class="st74" points="1619.5,579.9 1647.4,541.9 1658.5,540.6 1672.1,561.8 				"/>
				<polyline class="st74" points="1648.4,541 1648.5,538.8 1650.5,543 1652.4,538.7 1655.3,542.6 1656.9,538.5 1659.3,542.5 				
					"/>
			</g>
			<path class="st9" d="M1612.7,637.7c2,1.7,4,3.4,5.9,5.1l35.8-58.4l-60.6-25.5l-14.3,56.3C1591.1,621.5,1602.2,629,1612.7,637.7z"
				/>
		</g>
		<g>
			<g>
				<polyline class="st74" points="835,278.7 844.1,232.4 837.5,223.4 812.8,227.8 				"/>
				<polyline class="st74" points="844.1,231.1 845.7,229.6 841.2,230.9 843.2,226.6 838.3,227.1 840.2,223.2 835.6,224.1 				"/>
			</g>
			<path class="st9" d="M845.8,317.1l22.1-33.7L808.1,256l-10.9,38.1C814.5,299.8,830.8,307.6,845.8,317.1z"/>
		</g>
		<g>
			<path class="st9" d="M450.5,367c-4.9,10.4-7.4,34.2,5.5,44.3s32.4,1.4,51.6,19.5c17.4,16.3,26.4,48.9,26.4,48.9l53.5,4.9
				c0,0,10.1-33.1-15.3-36.1c-3-0.3-6.5-1.4-6.5-1.4s-4.8,18.6-15.6,12.3c-10.9-6.3-57.4-67.6-65.7-80.3s-15.8-30.1-15.8-30.1
				S455.7,356,450.5,367z"/>
			<path class="st9" d="M456.6,435.2c-0.4,4.7-0.9,9.4-1.3,13.7c2.6,1.8,5.2,3.6,7.8,5.6c2-16.4,5.9-37.7,12.4-37.1
				c-4.4-0.4-5,0.2-13.7-2.9c-9.2-3.3-8.3-5.6-12.3-11.8C450.9,406.4,458.3,416.3,456.6,435.2z"/>
		</g>
		<g>
			<path class="st76" d="M259.6,483.1c-15.2,0.5-30.5,1-45.7,1.4c-0.7,0-1.4,0.1-1.9,0.4c-0.8,0.6-0.9,1.7-1,2.7
				c-1.1,16.7-15.8,31.5-32.5,32.7c1.9,8.9,3.8,17.7,5.7,26.6c7.2-1.8,14.1-4.7,20.4-8.5c2,6.7,3.1,13.7,3.1,20.6
				c9.2-5.3,22.7-0.8,26.8,9.1c4.7-2.2,8.6-6.2,10.6-11c0.7-1.7,1.3-3.5,2.6-4.7c1.2-1,2.9-1.3,4.5-1.6c10.4-1.7,20.8-3.4,31.2-5.1
				c-2.9-10.9-6.3-21.7-10.2-32.2c-4.4,0.3-8.8,1.4-13,3c-0.5-3.6,1.1-7.1,2.6-10.3c1.5-3.3,2.9-6.9,2.1-10.4
				c-0.8-3.5-5-6.4-8.1-4.5c-1.7-1.8-2-4.7-0.6-6.8"/>
			<path class="st76" d="M244,500.8c-3.4,8.6-5.3,17.8-5.7,27.1c-6.6,0.7-13.2,1.8-19.6,3.3"/>
			<path class="st76" d="M261.1,517.5c-7.4,10.7-12.4,24.8-15,37.5"/>
		</g>
		<g>
			<path class="st77" d="M1379.9,523.3c-8.7-11-17.4-21.9-26.2-32.9c-0.4-0.5-0.8-1-1.4-1.1c-0.9-0.3-1.8,0.3-2.6,0.8
				c-13,8.3-31.9,5.6-41.9-6c-5.5,6.3-10.9,12.5-16.4,18.8c5.3,4.3,11.2,7.8,17.5,10.4c-3.8,5.1-8.4,9.7-13.5,13.6
				c9,3.9,13,16.3,8,24.7c4.2,2.3,9.3,2.9,14,1.8c1.6-0.4,3.3-1,4.9-0.6c1.5,0.3,2.6,1.4,3.7,2.5c7,6.7,13.9,13.4,20.9,20.2
				c6.5-8.1,12.5-16.5,18.2-25.2c-2.7-3.1-5.8-5.8-9.3-7.9c2.4-2.3,5.8-3.1,9-3.8s6.7-1.6,8.8-4.2c2.1-2.5,1.9-7.2-1.1-8.5
				c0.4-2.2,2.4-4.1,4.7-4.2"/>
			<path class="st77" d="M1358.3,521.5c-8.2,2.2-16.1,5.9-23.1,10.7c-4.2-4.5-8.6-8.7-13.2-12.7"/>
			<path class="st77" d="M1355.4,543.3c-11.9,0.4-25.1,4.5-35.9,9.5"/>
		</g>
		<path class="st75" d="M593,503.2c-14.8-20.7-42.1-29.9-67.2-20.8c-7.3,2.7-13.7,6.6-19.1,11.5c-22.2-34.3-65.8-50-105.8-35.3
			c-8.9,3.2-16.9,7.8-24,13.2c-13.5-3.4-28.2-2.9-42.3,2.3c-28.7,10.5-46.6,37.2-47.3,66c-24.8,15.9-36.1,47.3-25.6,76.1
			c0.9,2.5,1.9,4.8,3.1,7.1"/>
		<g>
			<path class="st78" d="M578.4,612.1c0,0,6.3,1.9,10.5,11.2s4,33.9,27.7,53.8c23.7,19.9,64,34,64,34s-29.2,4.8-55-2.8
				s-41.1-13.1-47.5-36.3C571.7,648.8,578.4,612.1,578.4,612.1z"/>
			<path class="st78" d="M623.6,735.3c0,0-39.8-36.3-44-58.5c-4.1-22.2-1.2-64.8-1.2-64.8s-12.9-12.3-16.6,5.3
				c-3.7,17.6-20.4,40.5-11.7,60.7C569.3,722.8,623.6,735.3,623.6,735.3z"/>
			<path class="st78" d="M478.8,699.2c0,0,30.2,8.2,46.2-11.7c16-19.9,44.1-77.2,42.4-79.3c-1.7-2.1-7.5,2.4-16.2,9.8
				c-18.6,15.7-32.3,46.8-45.1,63.2C494.3,696.4,478.8,699.2,478.8,699.2z"/>
			<path class="st78" d="M571.4,606.1c0,0-2-10.9,2.6-18.5s10-12.6,10-12.6l7.1,8.6c0,0-10.1,4.9-12.4,11.5
				C576.3,601.6,571.4,606.1,571.4,606.1z"/>
			
				<ellipse transform="matrix(0.688 -0.7257 0.7257 0.688 -303.0502 640.0474)" class="st9" cx="592.8" cy="672.5" rx="5.7" ry="9"/>
			
				<ellipse transform="matrix(0.688 -0.7257 0.7257 0.688 -272.4485 612.4907)" class="st9" cx="576.1" cy="623.1" rx="9.1" ry="19.9"/>
			
				<ellipse transform="matrix(0.3619 -0.9322 0.9322 0.3619 -237.1089 936.0128)" class="st9" cx="565.1" cy="641.2" rx="3.5" ry="2.6"/>
			
				<ellipse transform="matrix(0.3619 -0.9322 0.9322 0.3619 -260.6601 911.8728)" class="st9" cx="535.7" cy="646.3" rx="8" ry="4.2"/>
			
				<ellipse transform="matrix(0.9499 -0.3126 0.3126 0.9499 -183.8023 211.3684)" class="st9" cx="567.4" cy="679" rx="3.8" ry="10.7"/>
			
				<ellipse transform="matrix(0.1951 -0.9808 0.9808 0.1951 -190.8182 1075.5298)" class="st9" cx="559.9" cy="654" rx="8.7" ry="3.8"/>
			
				<ellipse transform="matrix(0.4918 -0.8707 0.8707 0.4918 -294.0832 871.8562)" class="st9" cx="599.9" cy="687.9" rx="3.3" ry="5.1"/>
			
				<ellipse transform="matrix(0.4918 -0.8707 0.8707 0.4918 -284.032 871.9346)" class="st9" cx="605" cy="679.3" rx="1.8" ry="2.3"/>
			
				<ellipse transform="matrix(0.4918 -0.8707 0.8707 0.4918 -317.2437 863.8688)" class="st9" cx="581.5" cy="703.7" rx="2.5" ry="3"/>
		</g>
		<path class="st75" d="M1789.8,735.2c-7.8-34.8-37.5-61.9-74.9-64.7c-23.6-1.8-45.7,6.5-62,21.2c-5.4-6.9-12.4-12.5-20.4-16.4
			c-9-33.3-38.2-58.8-74.6-61.6c-38.1-2.9-72.3,20.3-84.9,54.4"/>
		<path class="st9" d="M1925,737.9l11.3,3.6c1.5-1.2,3.1-2.2,4.8-3.2l-11.7-3.7l-0.9-21.4l66.3,21c0.9-1.3,1.7-2.6,2.6-3.9
			l-78.3-24.8l2.7-8.6l81.2,25.7c1-1.3,2-2.5,3.1-3.7l-30.3-9.6l-42.2-13.3l13.6-17.7l21.6,6.8l-8.8,14.9l3.9,2.3l9.3-15.8l20.9,6.6
			l-0.8,18.3l4.5,0.2l0.7-17.1l18.4,5.8l0.3,7.2c1.4-1.2,2.9-2.4,4.3-3.6l-0.3-6.9l-75.8-24l-16.5,21.5l-10.1-3.2l-5.4,17.2
			l10.4,3.3L1925,737.9z"/>
	</g>
</g>
<g id="text">
</g>
</svg>
