<?xml version="1.0" encoding="utf-8"?>
<!-- Generator: Adobe Illustrator 19.2.1, SVG Export Plug-In . SVG Version: 6.00 Build 0)  -->
<!DOCTYPE svg PUBLIC "-//W3C//DTD SVG 1.1//EN" "http://www.w3.org/Graphics/SVG/1.1/DTD/svg11.dtd">
<svg version="1.1" id="Layer_1" xmlns="http://www.w3.org/2000/svg" xmlns:xlink="http://www.w3.org/1999/xlink" x="0px" y="0px"
	 viewBox="0 0 80.677 98.394" enable-background="new 0 0 80.677 98.394" xml:space="preserve">
<g>
	<polygon fill="#0099CC" points="63.669,0 28.735,0 11.727,4.884 11.727,8.505 80.677,8.505 80.677,4.743 	"/>
	<path fill="#0099CC" d="M0,17.603h7.549c1.375,0,2.416,0.352,3.12,1.051c0.705,0.703,1.057,1.736,1.057,3.101l0.013,50.843
		c8.274,0.027,14.974,6.741,14.974,15.022c0,4.22-1.746,8.028-4.548,10.758l7.595,0.015h15.595l23.591-69.609
		c1.34-3.986,2.841-6.847,4.504-8.581c1.662-1.732,3.332-2.601,5.01-2.601h2.216v-5.109H0V17.603z M21.544,17.573h41.607
		L38.317,91.486h-5.493c0.254-1.251,0.405-2.539,0.405-3.865c0-8.033-4.803-14.919-11.684-18.008V17.573z"/>
	<circle fill="#808285" cx="11.69" cy="87.621" r="10.772"/>
</g>
<g>
</g>
<g>
</g>
<g>
</g>
<g>
</g>
<g>
</g>
<g>
</g>
</svg>
