<?xml version="1.0" encoding="utf-8"?>
<!-- Generator: Adobe Illustrator 19.2.1, SVG Export Plug-In . SVG Version: 6.00 Build 0)  -->
<!DOCTYPE svg PUBLIC "-//W3C//DTD SVG 1.1//EN" "http://www.w3.org/Graphics/SVG/1.1/DTD/svg11.dtd">
<svg version="1.1" id="Layer_1" xmlns="http://www.w3.org/2000/svg" xmlns:xlink="http://www.w3.org/1999/xlink" x="0px" y="0px"
	 viewBox="0 0 424.516 80.724" enable-background="new 0 0 424.516 80.724" xml:space="preserve">
<g>
	<g>
		<path fill="#808285" d="M23.82,77.592h-4.216l-1.097,2.392h-1.601l4.873-10.466l4.7,10.466h-1.626L23.82,77.592z M23.214,76.196
			l-1.46-3.349l-1.531,3.349H23.214z"/>
		<path fill="#808285" d="M31.628,79.984V69.467l7.181,7.513v-6.843h1.486v10.447l-7.181-7.494v6.894H31.628z"/>
		<path fill="#808285" d="M59.957,71.534h-3.948V73.9h3.833v1.396h-3.833v3.291h3.948v1.396h-5.434v-9.847h5.434V71.534z"/>
		<path fill="#808285" d="M65.826,79.984V69.467l7.181,7.513v-6.843h1.486v10.447l-7.181-7.494v6.894H65.826z"/>
		<path fill="#808285" d="M81.269,70.137l2.723,6.824l2.762-6.824h1.626L83.96,80.724l-4.318-10.587H81.269z"/>
		<path fill="#808285" d="M95.009,70.137v9.847h-1.486v-9.847H95.009z"/>
		<path fill="#808285" d="M104.628,75.788l3.049,4.196h-1.818l-2.812-4.031h-0.268v4.031h-1.486v-9.847h1.741
			c1.301,0,2.241,0.245,2.819,0.733c0.638,0.544,0.957,1.263,0.957,2.156c0,0.697-0.2,1.297-0.599,1.798
			C105.811,75.326,105.283,75.647,104.628,75.788z M102.779,74.659h0.472c1.407,0,2.111-0.538,2.111-1.614
			c0-1.007-0.685-1.511-2.053-1.511h-0.529V74.659z"/>
		<path fill="#808285" d="M112.361,75.016c0-1.386,0.508-2.576,1.524-3.571c1.012-0.995,2.228-1.492,3.648-1.492
			c1.403,0,2.606,0.501,3.61,1.505c1.008,1.003,1.511,2.209,1.511,3.616c0,1.416-0.506,2.617-1.518,3.603
			c-1.016,0.991-2.243,1.486-3.68,1.486c-1.271,0-2.413-0.44-3.425-1.32C112.917,77.869,112.361,76.593,112.361,75.016z
			 M113.859,75.032c0,1.087,0.366,1.982,1.097,2.683c0.727,0.701,1.566,1.051,2.519,1.051c1.033,0,1.905-0.357,2.615-1.07
			c0.71-0.722,1.065-1.602,1.065-2.638c0-1.049-0.351-1.928-1.052-2.638c-0.697-0.714-1.561-1.071-2.589-1.071
			c-1.024,0-1.89,0.357-2.596,1.071C114.212,73.125,113.859,73.995,113.859,75.032z"/>
		<path fill="#808285" d="M128.441,79.984V69.467l7.181,7.513v-6.843h1.486v10.447l-7.181-7.494v6.894H128.441z"/>
		<path fill="#808285" d="M143.042,79.984l2.073-10.587l3.38,7.653l3.501-7.653l1.862,10.587h-1.524l-0.95-5.944l-2.915,6.396
			l-2.832-6.403l-1.059,5.95H143.042z"/>
		<path fill="#808285" d="M165.296,71.534h-3.948V73.9h3.833v1.396h-3.833v3.291h3.948v1.396h-5.434v-9.847h5.434V71.534z"/>
		<path fill="#808285" d="M171.166,79.984V69.467l7.181,7.513v-6.843h1.486v10.447l-7.181-7.494v6.894H171.166z"/>
		<path fill="#808285" d="M188.827,71.534v8.45h-1.486v-8.45h-2.264v-1.397h6.008v1.397H188.827z"/>
		<path fill="#808285" d="M205.765,70.137v8.451h2.895v1.396h-4.381v-9.847H205.765z"/>
		<path fill="#808285" d="M219.422,71.534h-3.947V73.9h3.833v1.396h-3.833v3.291h3.947v1.396h-5.434v-9.847h5.434V71.534z"/>
		<path fill="#808285" d="M228.009,71.534v8.45h-1.485v-8.45h-2.265v-1.397h6.008v1.397H228.009z"/>
		<path fill="#808285" d="M236.997,73.989h4.247v-3.852h1.486v9.847h-1.486v-4.598h-4.247v4.598h-1.486v-9.847h1.486V73.989z"/>
		<path fill="#808285" d="M249.009,79.984v-9.847h1.479c0.659,0,1.185,0.051,1.575,0.153c0.396,0.102,0.729,0.274,1.002,0.517
			c0.276,0.251,0.495,0.563,0.656,0.938c0.166,0.378,0.249,0.761,0.249,1.148c0,0.706-0.271,1.303-0.81,1.792
			c0.522,0.179,0.935,0.491,1.237,0.938c0.306,0.442,0.459,0.957,0.459,1.543c0,0.77-0.272,1.42-0.816,1.952
			c-0.327,0.327-0.695,0.555-1.104,0.682c-0.446,0.124-1.006,0.185-1.678,0.185H249.009z M250.495,74.365h0.466
			c0.552,0,0.957-0.122,1.215-0.367c0.257-0.245,0.386-0.605,0.386-1.081c0-0.463-0.132-0.815-0.396-1.055s-0.646-0.36-1.148-0.36
			h-0.522V74.365z M250.495,78.588h0.918c0.672,0,1.165-0.132,1.479-0.396c0.332-0.285,0.498-0.646,0.498-1.084
			c0-0.425-0.16-0.782-0.479-1.071c-0.311-0.285-0.865-0.427-1.665-0.427h-0.752V78.588z"/>
		<path fill="#808285" d="M263.986,75.788l3.048,4.196h-1.817l-2.812-4.031h-0.268v4.031h-1.486v-9.847h1.741
			c1.301,0,2.24,0.245,2.819,0.733c0.638,0.544,0.956,1.263,0.956,2.156c0,0.697-0.2,1.297-0.6,1.798
			C265.168,75.326,264.641,75.647,263.986,75.788z M262.137,74.659h0.472c1.407,0,2.111-0.538,2.111-1.614
			c0-1.007-0.685-1.511-2.054-1.511h-0.529V74.659z"/>
		<path fill="#808285" d="M273.918,70.137v9.847h-1.486v-9.847H273.918z"/>
		<path fill="#808285" d="M280.202,79.984v-9.847h2.066c0.99,0,1.773,0.098,2.347,0.293c0.617,0.191,1.176,0.517,1.678,0.976
			c1.016,0.927,1.524,2.145,1.524,3.654c0,1.514-0.529,2.738-1.588,3.673c-0.532,0.468-1.089,0.793-1.671,0.976
			c-0.545,0.183-1.316,0.274-2.315,0.274H280.202z M281.688,78.588h0.67c0.667,0,1.222-0.07,1.664-0.21
			c0.442-0.149,0.842-0.385,1.199-0.708c0.731-0.667,1.097-1.537,1.097-2.608c0-1.08-0.361-1.956-1.084-2.628
			c-0.65-0.599-1.609-0.899-2.876-0.899h-0.67V78.588z"/>
		<path fill="#808285" d="M298.668,74.857h4.069v0.325c0,0.74-0.087,1.395-0.262,1.964c-0.17,0.527-0.457,1.021-0.86,1.479
			c-0.914,1.029-2.077,1.543-3.489,1.543c-1.377,0-2.557-0.498-3.539-1.493c-0.982-0.999-1.474-2.198-1.474-3.597
			c0-1.429,0.5-2.64,1.499-3.635c0.999-0.999,2.215-1.499,3.648-1.499c0.769,0,1.487,0.156,2.155,0.47
			c0.638,0.313,1.265,0.822,1.881,1.526l-1.059,1.014c-0.808-1.076-1.792-1.614-2.952-1.614c-1.042,0-1.916,0.359-2.621,1.078
			c-0.706,0.706-1.06,1.59-1.06,2.653c0,1.097,0.394,2,1.181,2.71c0.735,0.659,1.532,0.988,2.392,0.988
			c0.73,0,1.388-0.246,1.971-0.738c0.582-0.496,0.907-1.09,0.976-1.781h-2.456V74.857z"/>
		<path fill="#808285" d="M313.958,71.534h-3.947V73.9h3.833v1.396h-3.833v3.291h3.947v1.396h-5.434v-9.847h5.434V71.534z"/>
		<path fill="#808285" d="M329.263,75.986v3.999h-1.486v-9.847h1.684c0.825,0,1.448,0.058,1.869,0.172
			c0.425,0.115,0.799,0.332,1.122,0.65c0.565,0.553,0.849,1.25,0.849,2.092c0,0.902-0.303,1.616-0.906,2.143
			s-1.418,0.791-2.442,0.791H329.263z M329.263,74.608h0.555c1.365,0,2.047-0.525,2.047-1.575c0-1.016-0.703-1.524-2.11-1.524
			h-0.491V74.608z"/>
		<path fill="#808285" d="M342.084,75.788l3.048,4.196h-1.817l-2.812-4.031h-0.268v4.031h-1.486v-9.847h1.741
			c1.301,0,2.24,0.245,2.819,0.733c0.638,0.544,0.956,1.263,0.956,2.156c0,0.697-0.2,1.297-0.6,1.798
			C343.266,75.326,342.738,75.647,342.084,75.788z M340.234,74.659h0.472c1.407,0,2.111-0.538,2.111-1.614
			c0-1.007-0.685-1.511-2.054-1.511h-0.529V74.659z"/>
		<path fill="#808285" d="M349.816,75.016c0-1.386,0.509-2.576,1.524-3.571c1.012-0.995,2.228-1.492,3.648-1.492
			c1.402,0,2.605,0.501,3.609,1.505c1.008,1.003,1.512,2.209,1.512,3.616c0,1.416-0.506,2.617-1.519,3.603
			c-1.016,0.991-2.242,1.486-3.68,1.486c-1.271,0-2.413-0.44-3.425-1.32C350.374,77.869,349.816,76.593,349.816,75.016z
			 M351.315,75.032c0,1.087,0.365,1.982,1.097,2.683c0.728,0.701,1.567,1.051,2.52,1.051c1.033,0,1.904-0.357,2.614-1.07
			c0.71-0.722,1.065-1.602,1.065-2.638c0-1.049-0.351-1.928-1.053-2.638c-0.697-0.714-1.56-1.071-2.589-1.071
			c-1.024,0-1.89,0.357-2.596,1.071C351.668,73.125,351.315,73.995,351.315,75.032z"/>
		<path fill="#808285" d="M368.895,70.137v6.372c0,0.761-0.054,1.329-0.16,1.703c-0.106,0.425-0.287,0.785-0.542,1.078
			c-0.497,0.583-1.156,0.874-1.977,0.874c-0.621,0-1.201-0.163-1.741-0.487l0.727-1.273c0.361,0.242,0.699,0.363,1.015,0.363
			c0.441,0,0.748-0.167,0.918-0.503c0.179-0.335,0.268-0.922,0.268-1.759v-6.367H368.895z"/>
		<path fill="#808285" d="M380.605,71.534h-3.947V73.9h3.833v1.396h-3.833v3.291h3.947v1.396h-5.434v-9.847h5.434V71.534z"/>
		<path fill="#808285" d="M393.753,70.663v1.757c-0.859-0.718-1.748-1.078-2.666-1.078c-1.012,0-1.864,0.364-2.558,1.09
			c-0.697,0.723-1.046,1.607-1.046,2.653c0,1.033,0.349,1.905,1.046,2.615s1.552,1.065,2.563,1.065c0.523,0,0.968-0.085,1.333-0.255
			c0.204-0.085,0.416-0.2,0.635-0.344s0.449-0.319,0.692-0.523v1.795c-0.851,0.483-1.744,0.724-2.679,0.724
			c-1.407,0-2.608-0.491-3.604-1.473c-0.991-0.991-1.486-2.186-1.486-3.584c0-1.254,0.415-2.373,1.244-3.354
			c1.021-1.203,2.341-1.805,3.96-1.805C392.073,69.946,392.928,70.185,393.753,70.663z"/>
		<path fill="#808285" d="M402.263,71.534v8.45h-1.485v-8.45h-2.265v-1.397h6.008v1.397H402.263z"/>
	</g>
	<g>
		<path fill="#808285" d="M0,7.619h15.31v2.324h-1.081c-1.606,0-2.63,0.124-3.074,0.372c-0.443,0.248-0.665,0.641-0.665,1.178
			c0,0.372,0.155,0.961,0.465,1.767l0.186,0.589l9.329,29.101l8.188-26.88c-0.955-3.053-1.685-4.836-2.19-5.352
			c-0.505-0.516-1.51-0.773-3.014-0.773h-2.782V7.619h19.121v2.324h-1.981c-1.734,0-2.859,0.139-3.375,0.418
			c-0.516,0.279-0.774,0.697-0.774,1.255c0,0.434,0.062,0.837,0.186,1.209l9.493,30.123l7.817-26.063
			c0.31-1.012,0.465-1.983,0.465-2.913c0-1.384-0.315-2.402-0.944-3.053s-1.573-0.976-2.831-0.976h-1.423V7.619h14.38v2.324
			c-1.262,0.166-2.265,0.47-3.009,0.914c-0.744,0.445-1.39,1.08-1.938,1.906c-0.548,0.826-1.101,2.2-1.659,4.122L42.904,54.539
			h-2.206L30.156,20.855L20.098,54.539h-2.321L4.87,13.848c-0.517-1.591-1.101-2.639-1.752-3.146C2.466,10.196,1.427,9.943,0,9.943
			V7.619z"/>
		<path fill="#808285" d="M71.007,6.658h2.075l16.437,41.931c0.661,1.694,2.015,2.542,4.061,2.542h1.426v2.324H76.72V51.13h1.457
			c1.9,0,3.243-0.207,4.029-0.62c0.537-0.289,0.806-0.733,0.806-1.333c0-0.351-0.073-0.723-0.217-1.116l-3.792-9.731H60.874
			l-2.129,5.578c-0.558,1.488-0.836,2.666-0.836,3.533c0,1.013,0.47,1.88,1.41,2.603c0.94,0.724,2.309,1.085,4.106,1.085h1.55v2.324
			H48.363V51.13c1.776,0,3.181-0.388,4.214-1.162c1.033-0.775,1.983-2.247,2.851-4.417L71.007,6.658z M70.104,15.49l-8.229,20.423
			h16.187L70.104,15.49z"/>
		<path fill="#808285" d="M124.013,11.09l2.789-3.998h2.262l0.186,16.704h-2.045c-1.281-5.124-3.177-8.864-5.687-11.219
			c-2.51-2.355-5.397-3.533-8.662-3.533c-2.728,0-4.959,0.817-6.694,2.451s-2.603,3.629-2.603,5.987c0,1.468,0.33,2.756,0.991,3.862
			c0.66,1.106,1.646,2.006,2.958,2.699s3.785,1.43,7.423,2.211c5.105,1.11,8.685,2.233,10.741,3.369
			c2.056,1.137,3.59,2.567,4.602,4.292c1.012,1.726,1.519,3.745,1.519,6.059c0,4.132-1.39,7.557-4.168,10.273
			c-2.779,2.717-6.369,4.075-10.77,4.075c-4.731,0-8.843-1.529-12.334-4.586l-3.502,4.276h-2.231V36.254h2.231
			c0.868,4.897,2.81,8.76,5.827,11.591c3.016,2.831,6.415,4.246,10.196,4.246c3.058,0,5.552-0.903,7.484-2.711
			c1.932-1.808,2.897-4.003,2.897-6.585c0-1.467-0.362-2.753-1.084-3.858c-0.724-1.105-1.87-2.035-3.44-2.79
			c-1.57-0.754-4.66-1.668-9.267-2.743c-5.062-1.198-8.512-2.541-10.351-4.029c-2.583-2.107-3.874-5.093-3.874-8.956
			c0-4.029,1.286-7.33,3.858-9.902s5.862-3.858,9.871-3.858c1.921,0,3.75,0.341,5.485,1.023
			C120.355,8.362,122.153,9.499,124.013,11.09z"/>
		<path fill="#808285" d="M135.654,7.619h37.22l0.899,17.324h-2.139c-1.408-10.186-5.094-15.278-11.057-15.278
			c-1.201,0-2.024,0.207-2.469,0.62c-0.446,0.414-0.668,1.095-0.668,2.045v36.631c0,0.744,0.217,1.292,0.651,1.643
			c0.434,0.352,1.147,0.527,2.139,0.527h4.617v2.324h-21.291V51.13h5.269c0.702,0,1.24-0.175,1.611-0.527
			c0.372-0.351,0.558-0.816,0.558-1.395V12.05c0-0.785-0.238-1.379-0.713-1.782c-0.476-0.403-1.24-0.604-2.293-0.604
			c-2.996,0-5.496,1.415-7.5,4.246c-1.653,2.335-2.841,6.012-3.563,11.033h-2.263L135.654,7.619z"/>
		<path fill="#808285" d="M176.622,7.619h36.321l0.868,15.464h-2.077c-0.825-4.876-2.13-8.285-3.915-10.227
			c-1.785-1.942-4.111-2.913-6.979-2.913h-8.975c-0.723,0-1.269,0.197-1.641,0.589c-0.372,0.393-0.557,0.992-0.557,1.797v16.332
			h3.924c2.102,0,3.807-0.754,5.115-2.262c1.308-1.508,2.014-3.822,2.117-6.942h2.138v21.229h-2.138
			c-0.104-3.512-0.819-6.028-2.148-7.546c-1.329-1.519-3.137-2.278-5.424-2.278h-3.584v18.223c0,0.661,0.222,1.167,0.665,1.519
			c0.444,0.352,1.181,0.527,2.213,0.527h7.088c7.696,0,12.132-4.917,13.308-14.752h2.231L214.4,53.454h-37.778V51.13h3.13
			c1.219,0,2.077-0.212,2.572-0.635c0.496-0.423,0.744-1.039,0.744-1.844V12.329c0-0.806-0.217-1.405-0.651-1.797
			c-0.434-0.392-1.116-0.589-2.045-0.589h-3.75V7.619z"/>
		<path fill="#0099CC" d="M218.512,7.619h21.26v2.324h-5.083c-0.806,0-1.399,0.212-1.781,0.635c-0.383,0.424-0.574,1.09-0.574,1.999
			v36.167c0,0.868,0.242,1.482,0.728,1.844c0.485,0.362,1.46,0.542,2.925,0.542h6.438c3.426,0,6.227-1.142,8.403-3.425
			c2.177-2.283,3.76-6.245,4.751-11.885h2.169l-1.054,17.634h-38.181V51.13h3.75c1.28,0,2.18-0.243,2.696-0.729
			c0.516-0.485,0.774-1.265,0.774-2.34V12.267c0-0.764-0.217-1.343-0.65-1.735c-0.435-0.392-1.075-0.589-1.922-0.589h-4.648V7.619z"
			/>
		<path fill="#0099CC" d="M261.237,7.619h36.322l0.867,15.464h-2.076c-0.825-4.876-2.13-8.285-3.915-10.227
			c-1.785-1.942-4.11-2.913-6.979-2.913h-8.975c-0.723,0-1.27,0.197-1.641,0.589c-0.371,0.393-0.557,0.992-0.557,1.797v16.332h3.925
			c2.102,0,3.807-0.754,5.114-2.262c1.309-1.508,2.015-3.822,2.117-6.942h2.139v21.229h-2.139c-0.103-3.512-0.819-6.028-2.147-7.546
			c-1.329-1.519-3.137-2.278-5.424-2.278h-3.585v18.223c0,0.661,0.222,1.167,0.665,1.519c0.443,0.352,1.181,0.527,2.213,0.527h7.088
			c7.696,0,12.132-4.917,13.309-14.752h2.23l-0.774,17.076h-37.778V51.13h3.131c1.219,0,2.076-0.212,2.572-0.635
			c0.495-0.423,0.743-1.039,0.743-1.844V12.329c0-0.806-0.217-1.405-0.65-1.797c-0.434-0.392-1.116-0.589-2.046-0.589h-3.75V7.619z"
			/>
		<path fill="#0099CC" d="M330.492,11.09l2.789-3.998h2.263l0.186,16.704h-2.046c-1.281-5.124-3.176-8.864-5.687-11.219
			c-2.51-2.355-5.397-3.533-8.662-3.533c-2.727,0-4.958,0.817-6.693,2.451c-1.736,1.634-2.604,3.629-2.604,5.987
			c0,1.468,0.33,2.756,0.99,3.862c0.661,1.106,1.646,2.006,2.958,2.699c1.311,0.693,3.785,1.43,7.423,2.211
			c5.104,1.11,8.685,2.233,10.741,3.369c2.056,1.137,3.589,2.567,4.602,4.292c1.013,1.726,1.519,3.745,1.519,6.059
			c0,4.132-1.39,7.557-4.168,10.273c-2.779,2.717-6.369,4.075-10.77,4.075c-4.731,0-8.843-1.529-12.334-4.586l-3.502,4.276h-2.231
			V36.254h2.231c0.867,4.897,2.81,8.76,5.826,11.591c3.016,2.831,6.415,4.246,10.195,4.246c3.058,0,5.553-0.903,7.484-2.711
			c1.932-1.808,2.898-4.003,2.898-6.585c0-1.467-0.362-2.753-1.085-3.858c-0.724-1.105-1.87-2.035-3.44-2.79
			c-1.57-0.754-4.659-1.668-9.266-2.743c-5.062-1.198-8.513-2.541-10.352-4.029c-2.583-2.107-3.874-5.093-3.874-8.956
			c0-4.029,1.286-7.33,3.858-9.902s5.862-3.858,9.871-3.858c1.921,0,3.75,0.341,5.485,1.023
			C326.835,8.362,328.633,9.499,330.492,11.09z"/>
		<path fill="#0099CC" d="M368.693,11.09l2.789-3.998h2.263l0.186,16.704h-2.046c-1.281-5.124-3.176-8.864-5.687-11.219
			c-2.51-2.355-5.397-3.533-8.662-3.533c-2.727,0-4.958,0.817-6.693,2.451c-1.736,1.634-2.604,3.629-2.604,5.987
			c0,1.468,0.33,2.756,0.99,3.862c0.661,1.106,1.646,2.006,2.958,2.699c1.311,0.693,3.785,1.43,7.423,2.211
			c5.104,1.11,8.685,2.233,10.741,3.369c2.056,1.137,3.589,2.567,4.602,4.292c1.013,1.726,1.519,3.745,1.519,6.059
			c0,4.132-1.39,7.557-4.168,10.273c-2.779,2.717-6.369,4.075-10.77,4.075c-4.731,0-8.843-1.529-12.334-4.586l-3.502,4.276h-2.231
			V36.254h2.231c0.867,4.897,2.81,8.76,5.826,11.591c3.016,2.831,6.415,4.246,10.195,4.246c3.058,0,5.553-0.903,7.484-2.711
			c1.932-1.808,2.898-4.003,2.898-6.585c0-1.467-0.362-2.753-1.085-3.858c-0.724-1.105-1.87-2.035-3.44-2.79
			c-1.57-0.754-4.659-1.668-9.266-2.743c-5.062-1.198-8.513-2.541-10.352-4.029c-2.583-2.107-3.874-5.093-3.874-8.956
			c0-4.029,1.286-7.33,3.858-9.902s5.862-3.858,9.871-3.858c1.921,0,3.75,0.341,5.485,1.023
			C365.036,8.362,366.834,9.499,368.693,11.09z"/>
	</g>
	<g>
		<polygon fill="#0099CC" points="414.888,0 395.114,0 385.487,2.764 385.487,4.814 424.516,4.814 424.516,2.685 		"/>
		<path fill="#0099CC" d="M378.849,9.964h4.273c0.779,0,1.367,0.199,1.766,0.595c0.399,0.398,0.598,0.982,0.598,1.755l0.008,28.78
			c4.684,0.015,8.476,3.816,8.476,8.503c0,2.389-0.988,4.544-2.574,6.089l4.299,0.009h8.828l13.354-39.402
			c0.759-2.256,1.608-3.875,2.549-4.857c0.941-0.981,1.886-1.472,2.836-1.472h1.254V7.072h-45.667V9.964z M391.044,9.947h23.551
			l-14.057,41.838h-3.109c0.144-0.708,0.229-1.437,0.229-2.188c0-4.547-2.719-8.445-6.614-10.193V9.947z"/>
		<circle fill="#808285" cx="385.466" cy="49.597" r="6.097"/>
	</g>
</g>
<g>
</g>
<g>
</g>
<g>
</g>
<g>
</g>
<g>
</g>
<g>
</g>
</svg>
