<svg xmlns="http://www.w3.org/2000/svg" viewBox="0 0 583.8486 867.6789"><title>Asset 1</title><rect x="191.8833" y="296.2785" width="14.5713" height="515.4165" style="fill:#fff;stroke:#1095c8;stroke-miterlimit:10;stroke-width:2.23744409277032px"/><rect x="401.2954" y="296.2785" width="14.5713" height="515.4165" transform="translate(817.1621 1107.9734) rotate(-180)" style="fill:#fff;stroke:#1095c8;stroke-miterlimit:10;stroke-width:2.23744409277032px"/><rect x="439.7627" y="607.9194" width="28.4687" height="34.9269" transform="translate(611.8234 -131.1275) rotate(47.7621)" style="fill:#fff;stroke:#1095c8;stroke-linecap:round;stroke-linejoin:round;stroke-width:2.23744409277032px"/><polygon points="450.636 647.661 456.533 647.758 482.391 624.28 476.495 624.182 450.636 647.661" style="fill:#fff;stroke:#1095c8;stroke-linecap:round;stroke-linejoin:round;stroke-width:2.23744409277032px"/><polygon points="463.234 603.615 457.358 603.105 476.495 624.182 482.391 624.28 463.234 603.615" style="fill:#a3d3e6;stroke:#1095c8;stroke-linecap:round;stroke-linejoin:round;stroke-width:2.23744409277032px"/><polygon points="457.088 602.808 463.548 603.433 464.359 598.401 457.899 597.775 457.088 602.808" style="fill:#fff;stroke:#1095c8;stroke-linecap:round;stroke-linejoin:round;stroke-width:2.23744409277032px"/><polygon points="479.746 621.367 486.01 621.776 482.295 624.362 476.031 623.953 479.746 621.367" style="fill:#fff;stroke:#1095c8;stroke-linecap:round;stroke-linejoin:round;stroke-width:2.23744409277032px"/><polygon points="458.324 603.235 453.033 604.919 472.17 625.996 477.481 623.9 458.324 603.235" style="fill:#fff;stroke:#1095c8;stroke-linecap:round;stroke-linejoin:round;stroke-width:2.23744409277032px"/><rect x="445.2499" y="620.74" width="18.3867" height="2.8391" transform="translate(609.5832 -132.5144) rotate(47.7621)" style="fill:#a3d3e6"/><rect x="442.853" y="620.8811" width="9.1934" height="2.8391" transform="translate(607.3953 -127.2904) rotate(47.7621)" style="fill:#a3d3e6"/><path d="M568.5794,792.2231a14.0665,14.0665,0,0,0-7.56,2.203,18.3705,18.3705,0,0,0-13.1935-11.2219,21.4873,21.4873,0,0,0-24.7217-29.6693,41.9074,41.9074,0,0,0-7.65-4.5942,19.39,19.39,0,0,0-12.1185-26.6714,39.7818,39.7818,0,0,0-29.0325-42.8774,22.5581,22.5581,0,0,0-14.9221-25.9364,14.6431,14.6431,0,0,0-2.05-15.1284,14.7023,14.7023,0,0,0-7.7014-15.3618,27.709,27.709,0,0,0-4.5637-34.9361,19.8955,19.8955,0,0,0,1.2429-27.3972,16.7328,16.7328,0,0,0-13.7488-25.718,22.17,22.17,0,0,0-4.8944-30.3447,24.6675,24.6675,0,0,0,4.492-14.2234c0-.3713-.0119-.74-.028-1.1071a9.8783,9.8783,0,0,0-6.907-16.08,24.8831,24.8831,0,0,0-5.4381-4.2654,13.0892,13.0892,0,0,0-7.81-16.5554,22.6215,22.6215,0,0,0,1.1662-28.6691,18.0773,18.0773,0,0,0-7.75-25.9919,21.3767,21.3767,0,0,0-.8408-24.2165,32.1034,32.1034,0,0,0,4.6331-44.4621,22.8665,22.8665,0,0,0-8.5042-36.8186,8.426,8.426,0,0,0-8.2054-10.0084c.0005-.0615.0046-.1223.0046-.184a17.0876,17.0876,0,0,0-23.6017-15.7939,9.3357,9.3357,0,0,0-16.7406-1.4447,20.6566,20.6566,0,0,0-15.0188.9584,16.4007,16.4007,0,0,0-26.2879-10.124,7.6134,7.6134,0,0,0-6.8266-.8143A11.0051,11.0051,0,0,0,282.3,258.302c-.413-.0352-.8281-.0632-1.25-.0632a14.47,14.47,0,0,0-8.0425,2.43,18.9085,18.9085,0,0,0-27.9605,16.5969c0,.4043.0171.8044.0421,1.2024a18.9276,18.9276,0,0,0-6.942,4.5616,14.1712,14.1712,0,0,0-19.5048,13.14c0,.3289.0272.6509.0492.9741a24.4765,24.4765,0,0,0-13.0013,41.95,25.2456,25.2456,0,0,0,.6921,29.6643,13.4535,13.4535,0,0,0-4.0648,22.0629,19.3489,19.3489,0,0,0,1.3368,31.7594,13.726,13.726,0,0,0-4.7065,16.3835,23.58,23.58,0,0,0-9.5237,40.0471,16.2877,16.2877,0,0,0-5.57,9.5265,17.6889,17.6889,0,0,0-15.053,24.4158,12.9235,12.9235,0,0,0-4.2964,9.6239,13.0936,13.0936,0,0,0,.0744,1.3745,26.8345,26.8345,0,0,0-17.6722,44.9023,29.1754,29.1754,0,0,0-.4064,4.8221,28.8726,28.8726,0,0,0,4.1526,14.9607,28.8216,28.8216,0,0,0-1.8053,47.4571,29.9121,29.9121,0,0,0-1.5895,23.4333,27.2485,27.2485,0,0,0-26.2533,27.2275c0,.2222.0115.4415.0168.6624a27.523,27.523,0,0,0-21.525,26.8559c0,.7307.0371,1.4525.093,2.1688a26.3449,26.3449,0,0,0-17.9558,33.3637,38.968,38.968,0,0,0-28.302,28.2945,24.1042,24.1042,0,0,0-33.8871,19.66,12.4492,12.4492,0,1,0,4.9495,17.0962,24.0984,24.0984,0,0,0,38.4794-.5108,38.88,38.88,0,0,0,56.6324-.2293,41.74,41.74,0,0,0,61.1772-3.9613C201.8969,843.4051,249.3263,866.56,304.437,866.56c51.4285,0,96.169-20.1641,119.1575-49.8789a49.8592,49.8592,0,0,0,42.7215-2.0571,41.9066,41.9066,0,0,0,64.0305-1.184,18.3369,18.3369,0,0,0,26.4555.7733,14.15,14.15,0,1,0,11.7774-21.99Z" style="fill:#a3d3e6;stroke:#1095c8;stroke-miterlimit:10;stroke-width:2.23744409277032px"/><path d="M368.8883,308.2809c.0216-8.5654-3.0111-14.8277-6.7736-13.9874a4.376,4.376,0,0,0-1.9334,1.0678l-13.2938-5.97a4.376,4.376,0,0,0-.4864-2.1544c-1.8717-3.37-8.567-1.4764-14.9544,4.23s-10.048,13.0653-8.1763,16.4356c1.4316,2.578,5.686,2.073,10.4653-.8592l21.99,9.8747c.9838,5.52,3.4328,9.0353,6.3107,8.3926C365.799,324.4711,368.8667,316.8463,368.8883,308.2809Z" style="fill:#fff;stroke:#1095c8;stroke-linecap:round;stroke-linejoin:round;stroke-width:2.23744409277032px"/><ellipse cx="341.2101" cy="302.9659" rx="3.5036" ry="3.5569" transform="translate(-74.9444 490.124) rotate(-65.8174)" style="fill:none;stroke:#1095c8;stroke-linecap:round;stroke-linejoin:round;stroke-width:2.23744409277032px"/><ellipse cx="353.8079" cy="308.623" rx="3.5036" ry="3.5569" transform="translate(-72.6678 504.956) rotate(-65.8174)" style="fill:none;stroke:#1095c8;stroke-linecap:round;stroke-linejoin:round;stroke-width:2.23744409277032px"/><ellipse cx="341.9955" cy="293.3638" rx="3.5036" ry="3.5569" transform="translate(-65.7212 485.1719) rotate(-65.8174)" style="fill:none;stroke:#1095c8;stroke-linecap:round;stroke-linejoin:round;stroke-width:2.23744409277032px"/><ellipse cx="359.3971" cy="302.7595" rx="1.1143" ry="1.1451" transform="translate(-64.0192 506.5932) rotate(-65.8174)" style="fill:#1095c8"/><ellipse cx="361.2231" cy="298.6933" rx="1.1143" ry="1.1451" transform="translate(-59.2319 505.8584) rotate(-65.8174)" style="fill:#1095c8"/><ellipse cx="357.7057" cy="299.3689" rx="1.1143" ry="1.1451" transform="translate(-61.9248 503.0485) rotate(-65.8174)" style="fill:#1095c8"/><ellipse cx="363.055" cy="301.771" rx="1.1143" ry="1.1451" transform="translate(-60.9581 509.3465) rotate(-65.8174)" style="fill:#1095c8"/><rect x="348.3215" y="295.2318" width="6.0415" height="4.0527" transform="translate(152.6029 -117.84) rotate(24.1826)" style="fill:none;stroke:#1095c8;stroke-linecap:round;stroke-linejoin:round;stroke-width:2.23744409277032px"/><polyline points="161.149 691.564 157.607 678.59 159.297 675.889 166.422 676.627" style="fill:none;stroke:#1095c8;stroke-linecap:round;stroke-linejoin:round;stroke-width:2.23744409277032px"/><polyline points="157.575 678.215 157.096 677.803 158.411 678.097 157.762 676.921 159.159 676.961 158.537 675.883 159.844 676.038" style="fill:none;stroke:#1095c8;stroke-linecap:round;stroke-linejoin:round;stroke-width:2.23744409277032px"/><polygon points="177.639 710.071 168.339 715.158 151.886 693.556 168.325 684.565 177.639 710.071" style="fill:#fff;stroke:#1095c8;stroke-linecap:round;stroke-linejoin:round;stroke-width:2.23744409277032px"/><polyline points="290.678 484.372 294.221 471.399 292.531 468.698 285.405 469.436" style="fill:none;stroke:#1095c8;stroke-linecap:round;stroke-linejoin:round;stroke-width:2.23744409277032px"/><polyline points="294.252 471.023 294.731 470.612 293.416 470.906 294.065 469.73 292.668 469.769 293.29 468.692 291.983 468.846" style="fill:none;stroke:#1095c8;stroke-linecap:round;stroke-linejoin:round;stroke-width:2.23744409277032px"/><polygon points="274.188 502.879 283.488 507.966 299.941 486.365 283.502 477.373 274.188 502.879" style="fill:#fff;stroke:#1095c8;stroke-linecap:round;stroke-linejoin:round;stroke-width:2.23744409277032px"/><path d="M263.3168,469.2331l-13.04,3.7a8.6932,8.6932,0,0,0-5.9729,10.7044l4.3473,20.2669c1.3012,4.5863-.68,7.2657,3.3489,6.6571a147.7463,147.7463,0,0,0,15.0509-3.3934c4.2605-1.2087,10.7584-3.15,14.6978-5.0465s.3547-2.7524-.9465-7.3387l-6.7813-19.5764A8.6932,8.6932,0,0,0,263.3168,469.2331Z" style="fill:#fff;stroke:#1095c8;stroke-linecap:round;stroke-linejoin:round;stroke-width:2.23744409277032px"/><polygon points="254.162 471.83 249.536 468.11 250.89 466.59 253.011 467.774 253.745 465.78 257.144 465.517 254.768 469.386 258.577 463.357 261.575 465.344 258.266 468.556 260.089 468.688 260.022 470.168 254.162 471.83" style="fill:#fff;stroke:#1095c8;stroke-linecap:round;stroke-linejoin:round;stroke-width:2.23744409277032px"/><polygon points="253.086 473.759 249.923 479.202 251.185 479.74 253.086 473.759" style="fill:#a3d3e6;stroke:#1095c8;stroke-linecap:round;stroke-linejoin:round;stroke-width:2.23744409277032px"/><polygon points="257.142 472.608 258.453 480.029 260.029 479.581 257.142 472.608" style="fill:#a3d3e6;stroke:#1095c8;stroke-linecap:round;stroke-linejoin:round;stroke-width:2.23744409277032px"/><polygon points="260.448 471.67 266.299 474.556 265.597 476.041 260.448 471.67" style="fill:#a3d3e6;stroke:#1095c8;stroke-linecap:round;stroke-linejoin:round;stroke-width:2.23744409277032px"/><path d="M341.8942,559.4182a12.98,12.98,0,0,0,2.718-8.2217c-.0942-3.7868-3.3238-6.3608-3.3238-6.3608l-2.7427,1.709s3.1357,3.6365,3.795,5.8982S341.8942,559.4182,341.8942,559.4182Z" style="fill:#fff;stroke:#1095c8;stroke-linecap:round;stroke-linejoin:round;stroke-width:2.23744409277032px"/><path d="M340.7537,579.0779a3.2553,3.2553,0,0,1,1.3327-1.5319,4.8621,4.8621,0,0,1,1.2556-6.2,3.6067,3.6067,0,0,1,3.1083-4.9844,6.2915,6.2915,0,0,1,5.889-5.2509,7.3332,7.3332,0,0,0-1.06-1.3726c-3.8119-3.8114-8.7537-1.8173-8.7537-1.8173s-2.0221-4.93-7.4122-4.9988a7.3661,7.3661,0,0,0-1.7675.21,6.296,6.296,0,0,1-.4011,8.7391,3.6068,3.6068,0,0,1-2.4027,5.36,4.8685,4.8685,0,0,1-6.7554,4.137c-.1438-.0606-.2822-.1286-.417-.201.7553,5.2879,2.0355,9.0706,5.0167,10.3276a6.6978,6.6978,0,0,0,4.181.0434,6.6978,6.6978,0,0,0,2.95,2.9632c2.0427.8613,4.3772.3217,7.0318-1.1159-.0166-.0067-.0335-.0111-.05-.0181A3.2751,3.2751,0,0,1,340.7537,579.0779Z" style="fill:#fff;stroke:#1095c8;stroke-linecap:round;stroke-linejoin:round;stroke-width:2.23744409277032px"/><path d="M337.3509,557.0893a3.3767,3.3767,0,0,1,2.0443,3.4752,2.8763,2.8763,0,0,1,3.13,1.6086,3.7782,3.7782,0,0,1,.8479.1212,4.1083,4.1083,0,0,1,6.3078-.4356,6.3584,6.3584,0,0,1,2.6586-.7477,7.3332,7.3332,0,0,0-1.06-1.3726c-3.8119-3.8114-8.7537-1.8173-8.7537-1.8173s-2.0221-4.93-7.4122-4.9988a7.3661,7.3661,0,0,0-1.7675.21,6.3431,6.3431,0,0,1,1.5635,3.89A3.36,3.36,0,0,1,337.3509,557.0893Z" style="fill:#a3d3e6;stroke:#1095c8;stroke-linecap:round;stroke-linejoin:round;stroke-width:2.23744409277032px"/><path d="M342.499,583.3681a3.2592,3.2592,0,0,1-1.6637-1.5733,4.305,4.305,0,0,1-5.2437-3.9289,2.8379,2.8379,0,0,1-4.0038-2.36,4.6089,4.6089,0,0,1-7.2867-3.9439c-.2031-.0708-.38-.1362-.5145-.1928-.1438-.0606-.2822-.1286-.417-.201.7553,5.2879,2.0355,9.0706,5.0167,10.3276a6.6978,6.6978,0,0,0,4.181.0434,6.6978,6.6978,0,0,0,2.95,2.9632c2.0427.8613,4.3772.3217,7.0318-1.1159C342.5325,583.3795,342.5156,583.375,342.499,583.3681Z" style="fill:#a3d3e6;stroke:#1095c8;stroke-linecap:round;stroke-linejoin:round;stroke-width:2.23744409277032px"/><polygon points="427.478 707.941 416.878 707.941 412.81 681.094 431.547 681.094 427.478 707.941" style="fill:#fff;stroke:#1095c8;stroke-linecap:round;stroke-linejoin:round;stroke-width:2.23744409277032px"/><polygon points="433.16 678.424 431.183 678.424 430.485 675.033 413.872 675.033 413.173 678.424 411.197 678.424 410.47 681.094 433.887 681.094 433.16 678.424" style="fill:#a3d3e6;stroke:#1095c8;stroke-linecap:round;stroke-linejoin:round;stroke-width:2.23744409277032px"/><polygon points="430.545 687.705 416.89 687.705 418.331 701.146 428.179 701.146 430.545 687.705" style="fill:#a3d3e6;stroke:#1095c8;stroke-linecap:round;stroke-linejoin:round;stroke-width:2.23744409277032px"/><polygon points="413.812 687.705 420.575 687.705 423.738 691.817 420.575 701.146 415.848 701.146 413.812 687.705" style="fill:#a3d3e6;stroke:#1095c8;stroke-linecap:round;stroke-linejoin:round;stroke-width:2.23744409277032px"/><path d="M208.4993,518.4723c-.0225-.1223-.0507-.2421-.07-.3658a12.6876,12.6876,0,0,1,20.9161-11.4659,31.9288,31.9288,0,0,1,32.9829-3.3946,18.7973,18.7973,0,0,1,26.5919-3.6934c.2238-.0416.4463-.0864.6728-.1214a21.801,21.801,0,0,1,15.1994,3.24,16.6976,16.6976,0,0,1,32.4029,5.2529" style="fill:#a3d3e6;stroke:#1095c8;stroke-miterlimit:10;stroke-width:2.23744409277032px"/><path d="M526.9477,766.0147c.0791-.1881.1665-.37.2405-.5619a20.8229,20.8229,0,0,0-29.5-25.7332,52.4012,52.4012,0,0,0-51.6819-17.0357,30.85,30.85,0,0,0-41.3314-15.2681c-.3441-.1454-.6851-.2953-1.0359-.431a35.78,35.78,0,0,0-25.5053-.1478,27.404,27.404,0,0,0-53.7917-2.9689" style="fill:#a3d3e6;stroke:#1095c8;stroke-miterlimit:10;stroke-width:2.23744409277032px"/><path d="M268.6174,375.39a13.95,13.95,0,0,1,14.3293-11.5487,18.8214,18.8214,0,0,1,29.6618,7.8259,11.4219,11.4219,0,0,1,18.2333,6.6928,16.8013,16.8013,0,0,1,22.1165,6.5492,5.6021,5.6021,0,0,1,6.4634,6.48" style="fill:#a3d3e6;stroke:#1095c8;stroke-miterlimit:10;stroke-width:2.23744409277032px"/><path d="M396.9359,623.3294c-.1434-.0354-.2866-.0522-.43-.0833A16.18,16.18,0,0,0,382.8606,599.71a22.4093,22.4093,0,0,0-13.2933-14.4116,14.4558,14.4558,0,0,0-28.3166-5.7023c-.0037.0148-.005.03-.0086.0444-.2873-.0862-.5669-.1864-.8614-.259a17.8046,17.8046,0,0,0-22.0347,18.6766,16.7317,16.7317,0,0,0-13.2376,12.4462" style="fill:#a3d3e6;stroke:#1095c8;stroke-miterlimit:10;stroke-width:2.23744409277032px"/><path d="M246.7763,742.3652a16.5981,16.5981,0,0,0-19.0286-15.9157,25.6041,25.6041,0,0,0-27.3432-25.9131,20.6562,20.6562,0,0,0-32.1718,1.9687,18.35,18.35,0,0,0-18.5888,16.2075" style="fill:#a3d3e6;stroke:#1095c8;stroke-miterlimit:10;stroke-width:2.23744409277032px"/><path d="M253.3836,311.12h0a15.49,15.49,0,0,1,21.6123-3.5712l2.7348,1.9592a16.8488,16.8488,0,0,1,18.638.6567c.0453.0324.0876.0673.1325.1a28.3809,28.3809,0,0,1,1.6444-2.58,28.0889,28.0889,0,0,1,48.0425,3.9825,34.1326,34.1326,0,0,1,34.6825,3.0184" style="fill:#a3d3e6;stroke:#1095c8;stroke-miterlimit:10;stroke-width:2.23744409277032px"/><rect x="318.6733" y="313.9131" width="51.7612" height="20.7821" transform="translate(-27.4981 31.9552) rotate(-5.1065)" style="fill:#a3d3e6"/><path d="M248.462,732.1662l-2.3362-15.668a1.1493,1.1493,0,0,0-.2281-.6307,1.2186,1.2186,0,0,0-.98-.2258,12.6045,12.6045,0,0,1-12.5519-9.8767l-8.9,3.0442a26.2813,26.2813,0,0,0,3.7383,6.6916,26.0149,26.0149,0,0,1-6.9706,1.9112,6.8113,6.8113,0,0,1-2.0474,9.5779,7.5283,7.5283,0,0,0,4.2258,3.2081,4.0252,4.0252,0,0,1,1.7081.721,3.1732,3.1732,0,0,1,.7372,1.4971l3.0113,10.5121q5.4477-2.1413,10.6771-4.79a15.0209,15.0209,0,0,0-1.56-4.3356,6.7213,6.7213,0,0,1,3.6612.4787,5.7511,5.7511,0,0,0,3.6618.3012c1.1728-.4278,1.9848-1.9867,1.2207-2.974a1.9374,1.9374,0,0,1,2.3108-.4937" style="fill:#fff;stroke:#1095c8;stroke-linecap:round;stroke-linejoin:round;stroke-width:2.23744409277032px"/><path d="M241.7478,727.5231a29.0661,29.0661,0,0,0-9.5534-.8668,59.4143,59.4143,0,0,0-1.93-6.62" style="fill:#fff;stroke:#1095c8;stroke-linecap:round;stroke-linejoin:round;stroke-width:2.23744409277032px"/><path d="M236.6928,734.0846a36.8572,36.8572,0,0,0-13.514-3.6669" style="fill:#fff;stroke:#1095c8;stroke-linecap:round;stroke-linejoin:round;stroke-width:2.23744409277032px"/><rect x="221.3708" y="296.2785" width="14.5713" height="515.4165" style="fill:#fff;stroke:#1095c8;stroke-miterlimit:10;stroke-width:2.23744409277032px"/><rect x="371.8079" y="296.2785" width="14.5713" height="515.4165" transform="translate(758.187 1107.9734) rotate(-180)" style="fill:#fff;stroke:#1095c8;stroke-miterlimit:10;stroke-width:2.23744409277032px"/><rect x="293.8981" y="296.2785" width="14.5713" height="515.4165" transform="translate(602.3675 1107.9734) rotate(-180)" style="fill:#fff;stroke:#1095c8;stroke-miterlimit:10;stroke-width:2.23744409277032px"/><rect x="153.685" y="271.9196" width="300.38" height="24.3588" style="fill:#fff;stroke:#1095c8;stroke-miterlimit:10;stroke-width:2.23744409277032px"/><polygon points="383.525 195.833 224.225 195.833 206.886 165.287 400.864 165.287 383.525 195.833" style="fill:#fff;stroke:#1095c8;stroke-miterlimit:10;stroke-width:2.23744409277032px"/><rect x="301.3048" y="1.1187" width="5.1404" height="164.1678" style="fill:#fff;stroke:#1095c8;stroke-miterlimit:10;stroke-width:2.23744409277032px"/><rect x="224.7796" y="326.2939" width="75.6476" height="130.5176" style="fill:#a3d3e6;stroke:#1095c8;stroke-miterlimit:10;stroke-width:2.23744409277032px"/><rect x="307.3228" y="326.2939" width="75.6476" height="130.5176" transform="translate(690.2932 783.1054) rotate(-180)" style="fill:#a3d3e6;stroke:#1095c8;stroke-miterlimit:10;stroke-width:2.23744409277032px"/><path d="M433.928,271.92H173.822V233.44c0-19.0182,50.4028-37.6068,50.4028-37.6068h159.3S433.928,214.0487,433.928,233.44Z" style="fill:#fff;stroke:#1095c8;stroke-miterlimit:10;stroke-width:2.23744409277032px"/><line x1="296.5238" y1="195.6407" x2="296.5238" y2="159.6407" style="fill:none;stroke:#1095c8;stroke-miterlimit:10;stroke-width:2px"/><line x1="283.2734" y1="195.8332" x2="279.9173" y2="160.3502" style="fill:none;stroke:#1095c8;stroke-miterlimit:10;stroke-width:2.23744409277032px"/><line x1="268.3571" y1="195.8332" x2="261.2719" y2="160.3502" style="fill:none;stroke:#1095c8;stroke-miterlimit:10;stroke-width:2.23744409277032px"/><line x1="254.5596" y1="195.8332" x2="244.4911" y2="160.3502" style="fill:none;stroke:#1095c8;stroke-miterlimit:10;stroke-width:2.23744409277032px"/><line x1="241.5078" y1="195.8332" x2="230.6935" y2="160.3502" style="fill:none;stroke:#1095c8;stroke-miterlimit:10;stroke-width:2.23744409277032px"/><line x1="230.6935" y1="195.8332" x2="218.0147" y2="160.3502" style="fill:none;stroke:#1095c8;stroke-miterlimit:10;stroke-width:2.23744409277032px"/><line x1="224.2253" y1="195.8332" x2="206.8864" y2="160.3502" style="fill:none;stroke:#1095c8;stroke-miterlimit:10;stroke-width:2.23744409277032px"/><line x1="310.5238" y1="195.6407" x2="310.5238" y2="159.6407" style="fill:none;stroke:#1095c8;stroke-miterlimit:10;stroke-width:2px"/><line x1="324.4765" y1="195.8332" x2="327.8327" y2="160.3502" style="fill:none;stroke:#1095c8;stroke-miterlimit:10;stroke-width:2.23744409277032px"/><line x1="339.3928" y1="195.8332" x2="346.4781" y2="160.3502" style="fill:none;stroke:#1095c8;stroke-miterlimit:10;stroke-width:2.23744409277032px"/><line x1="353.1904" y1="195.8332" x2="363.2589" y2="160.3502" style="fill:none;stroke:#1095c8;stroke-miterlimit:10;stroke-width:2.23744409277032px"/><line x1="366.2421" y1="195.8332" x2="377.0565" y2="160.3502" style="fill:none;stroke:#1095c8;stroke-miterlimit:10;stroke-width:2.23744409277032px"/><line x1="377.0565" y1="195.8332" x2="389.7353" y2="160.3502" style="fill:none;stroke:#1095c8;stroke-miterlimit:10;stroke-width:2.23744409277032px"/><line x1="383.5247" y1="195.8332" x2="400.8636" y2="160.3502" style="fill:none;stroke:#1095c8;stroke-miterlimit:10;stroke-width:2.23744409277032px"/><rect x="280.5388" y="219.0817" width="18.8286" height="14.7947" style="fill:none;stroke:#1095c8;stroke-miterlimit:10;stroke-width:2.23744409277032px"/><rect x="256.6106" y="219.0817" width="17.6183" height="14.7947" style="fill:none;stroke:#1095c8;stroke-miterlimit:10;stroke-width:2.23744409277032px"/><rect x="232.1395" y="219.0817" width="16.9507" height="14.7947" style="fill:none;stroke:#1095c8;stroke-miterlimit:10;stroke-width:2.23744409277032px"/><rect x="211.0253" y="219.0817" width="15.4336" height="14.7947" style="fill:none;stroke:#1095c8;stroke-miterlimit:10;stroke-width:2.23744409277032px"/><rect x="192.8434" y="219.0817" width="13.0097" height="14.7947" style="fill:none;stroke:#1095c8;stroke-miterlimit:10;stroke-width:2.23744409277032px"/><path d="M188.3265,233.8764H177.1813v-9.3212s.9344-1.235,2.1861-2.666a34.5146,34.5146,0,0,1,2.8287-2.8075h6.13Z" style="fill:none;stroke:#1095c8;stroke-miterlimit:10;stroke-width:2.23744409277032px"/><rect x="333.5211" y="219.0817" width="17.6183" height="14.7947" transform="translate(684.6605 452.9581) rotate(-180)" style="fill:none;stroke:#1095c8;stroke-miterlimit:10;stroke-width:2.23744409277032px"/><rect x="358.6597" y="219.0817" width="16.9507" height="14.7947" transform="translate(734.2701 452.9581) rotate(-180)" style="fill:none;stroke:#1095c8;stroke-miterlimit:10;stroke-width:2.23744409277032px"/><rect x="381.291" y="219.0817" width="15.4336" height="14.7947" transform="translate(778.0157 452.9581) rotate(-180)" style="fill:none;stroke:#1095c8;stroke-miterlimit:10;stroke-width:2.23744409277032px"/><rect x="401.8968" y="219.0817" width="13.0097" height="14.7947" transform="translate(816.8034 452.9581) rotate(-180)" style="fill:none;stroke:#1095c8;stroke-miterlimit:10;stroke-width:2.23744409277032px"/><path d="M419.4235,233.8764h11.1452v-9.3212s-.9344-1.235-2.1861-2.666a34.5145,34.5145,0,0,0-2.8287-2.8075h-6.13Z" style="fill:none;stroke:#1095c8;stroke-miterlimit:10;stroke-width:2.23744409277032px"/><rect x="308.3825" y="219.0817" width="18.8286" height="14.7947" style="fill:none;stroke:#1095c8;stroke-miterlimit:10;stroke-width:2.23744409277032px"/><rect x="280.5388" y="254.8808" width="18.8286" height="14.7947" style="fill:none;stroke:#1095c8;stroke-miterlimit:10;stroke-width:2.23744409277032px"/><rect x="256.6106" y="254.8808" width="17.6183" height="14.7947" style="fill:none;stroke:#1095c8;stroke-miterlimit:10;stroke-width:2.23744409277032px"/><rect x="232.1395" y="254.8808" width="16.9507" height="14.7947" style="fill:none;stroke:#1095c8;stroke-miterlimit:10;stroke-width:2.23744409277032px"/><rect x="211.0253" y="254.8808" width="15.4336" height="14.7947" style="fill:none;stroke:#1095c8;stroke-miterlimit:10;stroke-width:2.23744409277032px"/><rect x="192.8434" y="254.8808" width="13.0097" height="14.7947" style="fill:none;stroke:#1095c8;stroke-miterlimit:10;stroke-width:2.23744409277032px"/><rect x="177.1813" y="254.8808" width="11.1452" height="14.7947" style="fill:none;stroke:#1095c8;stroke-miterlimit:10;stroke-width:2.23744409277032px"/><rect x="333.5211" y="254.8808" width="17.6183" height="14.7947" transform="translate(684.6605 524.5563) rotate(-180)" style="fill:none;stroke:#1095c8;stroke-miterlimit:10;stroke-width:2.23744409277032px"/><rect x="358.6597" y="254.8808" width="16.9507" height="14.7947" transform="translate(734.2701 524.5563) rotate(-180)" style="fill:none;stroke:#1095c8;stroke-miterlimit:10;stroke-width:2.23744409277032px"/><rect x="381.291" y="254.8808" width="15.4336" height="14.7947" transform="translate(778.0157 524.5563) rotate(-180)" style="fill:none;stroke:#1095c8;stroke-miterlimit:10;stroke-width:2.23744409277032px"/><rect x="401.8968" y="254.8808" width="13.0097" height="14.7947" transform="translate(816.8034 524.5563) rotate(-180)" style="fill:none;stroke:#1095c8;stroke-miterlimit:10;stroke-width:2.23744409277032px"/><rect x="419.4235" y="254.8808" width="11.1452" height="14.7947" style="fill:none;stroke:#1095c8;stroke-miterlimit:10;stroke-width:2.23744409277032px"/><rect x="308.3825" y="254.8808" width="18.8286" height="14.7947" style="fill:none;stroke:#1095c8;stroke-miterlimit:10;stroke-width:2.23744409277032px"/><line x1="289.5238" y1="265.6407" x2="289.5238" y2="295.6407" style="fill:none;stroke:#1095c8;stroke-miterlimit:10;stroke-width:2px"/><line x1="276.5238" y1="265.6407" x2="276.5238" y2="295.6407" style="fill:none;stroke:#1095c8;stroke-miterlimit:10;stroke-width:2px"/><line x1="261.5238" y1="265.6407" x2="261.5238" y2="295.6407" style="fill:none;stroke:#1095c8;stroke-miterlimit:10;stroke-width:2px"/><line x1="248.5238" y1="265.6407" x2="248.5238" y2="295.6407" style="fill:none;stroke:#1095c8;stroke-miterlimit:10;stroke-width:2px"/><line x1="233.5238" y1="265.6407" x2="233.5238" y2="295.6407" style="fill:none;stroke:#1095c8;stroke-miterlimit:10;stroke-width:2px"/><line x1="219.5238" y1="265.6407" x2="219.5238" y2="295.6407" style="fill:none;stroke:#1095c8;stroke-miterlimit:10;stroke-width:2px"/><line x1="206.5238" y1="265.6407" x2="206.5238" y2="295.6407" style="fill:none;stroke:#1095c8;stroke-miterlimit:10;stroke-width:2px"/><line x1="191.5238" y1="265.6407" x2="191.5238" y2="295.6407" style="fill:none;stroke:#1095c8;stroke-miterlimit:10;stroke-width:2px"/><line x1="178.5238" y1="265.6407" x2="178.5238" y2="295.6407" style="fill:none;stroke:#1095c8;stroke-miterlimit:10;stroke-width:2px"/><line x1="164.5238" y1="265.6407" x2="164.5238" y2="295.6407" style="fill:none;stroke:#1095c8;stroke-miterlimit:10;stroke-width:2px"/><line x1="318.5238" y1="265.6407" x2="318.5238" y2="295.6407" style="fill:none;stroke:#1095c8;stroke-miterlimit:10;stroke-width:2px"/><line x1="303.5238" y1="265.6407" x2="303.5238" y2="295.6407" style="fill:none;stroke:#1095c8;stroke-miterlimit:10;stroke-width:2px"/><line x1="331.5238" y1="265.6407" x2="331.5238" y2="295.6407" style="fill:none;stroke:#1095c8;stroke-miterlimit:10;stroke-width:2px"/><line x1="345.5238" y1="265.6407" x2="345.5238" y2="295.6407" style="fill:none;stroke:#1095c8;stroke-miterlimit:10;stroke-width:2px"/><line x1="359.5238" y1="265.6407" x2="359.5238" y2="295.6407" style="fill:none;stroke:#1095c8;stroke-miterlimit:10;stroke-width:2px"/><line x1="373.5238" y1="265.6407" x2="373.5238" y2="295.6407" style="fill:none;stroke:#1095c8;stroke-miterlimit:10;stroke-width:2px"/><line x1="387.5238" y1="265.6407" x2="387.5238" y2="295.6407" style="fill:none;stroke:#1095c8;stroke-miterlimit:10;stroke-width:2px"/><line x1="401.5238" y1="265.6407" x2="401.5238" y2="295.6407" style="fill:none;stroke:#1095c8;stroke-miterlimit:10;stroke-width:2px"/><line x1="415.5238" y1="265.6407" x2="415.5238" y2="295.6407" style="fill:none;stroke:#1095c8;stroke-miterlimit:10;stroke-width:2px"/><line x1="428.5238" y1="265.6407" x2="428.5238" y2="295.6407" style="fill:none;stroke:#1095c8;stroke-miterlimit:10;stroke-width:2px"/><line x1="443.5238" y1="265.6407" x2="443.5238" y2="295.6407" style="fill:none;stroke:#1095c8;stroke-miterlimit:10;stroke-width:2px"/><polygon points="215.323 326.294 184.08 335.99 184.08 447.116 215.323 456.811 215.323 326.294" style="fill:#a3d3e6;stroke:#1095c8;stroke-miterlimit:10;stroke-width:2.23744409277032px"/><polygon points="392.427 326.294 423.67 335.99 423.67 447.116 392.427 456.811 392.427 326.294" style="fill:#a3d3e6;stroke:#1095c8;stroke-miterlimit:10;stroke-width:2.23744409277032px"/></svg>